<svg xmlns="http://www.w3.org/2000/svg" version="1.1" xmlns:xlink="http://www.w3.org/1999/xlink" width="512" height="512" x="0" y="0" viewBox="0 0 512 512" style="enable-background:new 0 0 512 512" xml:space="preserve" class=""><g><linearGradient id="a" x1="0" x2="512" y1="256" y2="256" gradientUnits="userSpaceOnUse"><stop offset="0" stop-color="#00f2fe"></stop><stop offset=".021" stop-color="#03effe"></stop><stop offset=".293" stop-color="#24d2fe"></stop><stop offset=".554" stop-color="#3cbdfe"></stop><stop offset=".796" stop-color="#4ab0fe"></stop><stop offset="1" stop-color="#4facfe"></stop></linearGradient><path fill="url(#a)" d="M74.053 235.439C33.22 235.439 0 268.659 0 309.492v95.801c0 40.833 33.22 74.053 74.053 74.053s74.054-33.22 74.054-74.053v-95.801c-.001-40.833-33.221-74.053-74.054-74.053zm34.053 169.854c0 18.776-15.276 34.053-34.054 34.053-18.776 0-34.052-15.277-34.052-34.053v-95.801c0-18.776 15.276-34.053 34.053-34.053s34.054 15.276 34.054 34.053v95.801zM256 134.047c-40.833 0-74.053 33.22-74.053 74.053v197.193c0 40.833 33.22 74.053 74.053 74.053s74.053-33.22 74.053-74.053V208.1c0-40.833-33.22-74.053-74.053-74.053zm34.053 271.246c0 18.776-15.276 34.053-34.053 34.053s-34.053-15.276-34.053-34.053V208.1c0-18.776 15.276-34.053 34.053-34.053s34.053 15.276 34.053 34.053zM472 306.042V106.707c0-18.776-15.276-34.053-34.053-34.053s-34.053 15.276-34.053 34.053v298.586c0 18.776 15.276 34.053 34.053 34.053S472 424.069 472 405.293v-.251c0-11.046 8.954-20 20-20s20 8.954 20 20v.251c0 40.833-33.22 74.053-74.053 74.053s-74.053-33.22-74.053-74.053V106.707c0-40.833 33.22-74.053 74.053-74.053S512 65.874 512 106.707v199.335c0 11.046-8.954 20-20 20s-20-8.954-20-20z" opacity="1" data-original="url(#a)" class=""></path></g></svg>