<svg xmlns="http://www.w3.org/2000/svg" version="1.1" xmlns:xlink="http://www.w3.org/1999/xlink" width="512" height="512" x="0" y="0" viewBox="0 0 64 64" style="enable-background:new 0 0 512 512" xml:space="preserve" class=""><g><linearGradient id="a" x1="4" x2="60" y1="32" y2="32" gradientUnits="userSpaceOnUse"><stop offset="0" stop-color="#00c0ff"></stop><stop offset="1" stop-color="#5558ff"></stop></linearGradient><path fill="url(#a)" d="M4 36.97V52a3.009 3.009 0 0 0 3 3h24V37l-25-.03zm11.9 7.94a3.86 3.86 0 1 1 5.78 0c1.776.946 4.104 3.488 2.75 5.6a2.328 2.328 0 0 1-1.9.98h-7.47c-4.305-.603-1.734-5.412.84-6.58zm1.03-2.56a1.86 1.86 0 0 1 3.72 0 1.86 1.86 0 0 1-3.72 0zm-2.19 6.76a4.294 4.294 0 0 1 8.1 0 .24.24 0 0 1-.04.24.342.342 0 0 1-.27.14h-7.47c-.269-.037-.346-.151-.32-.38zM4 34.97h2l25.01.03V19H4zm11.9-8.06a3.86 3.86 0 1 1 5.78 0c1.776.946 4.104 3.488 2.75 5.6a2.328 2.328 0 0 1-1.9.98h-7.47c-4.305-.603-1.734-5.412.84-6.58zm1.03-2.56a1.86 1.86 0 0 1 3.72 0 1.86 1.86 0 0 1-3.72 0zm-2.19 6.76a4.294 4.294 0 0 1 8.1 0 .24.24 0 0 1-.04.24.342.342 0 0 1-.27.14h-7.47c-.269-.037-.346-.151-.32-.38zm28.81-8.22L35.76 19h-2.75L33 53v2h24a3.009 3.009 0 0 0 3-3V23H44a.998.998 0 0 1-.45-.11zm5.99 15.19c3.025 1.026 7.888 5.851 5.64 9.27a3.389 3.389 0 0 1-2.75 1.42H39.16a3.356 3.356 0 0 1-3.19-4.37 10.37 10.37 0 0 1 6.08-6.32 6.09 6.09 0 0 1 3.74-10.86c5.734-.065 8.268 7.466 3.75 10.86zm-3.75 1.3a8.39 8.39 0 0 1 7.94 5.67 1.264 1.264 0 0 1-.18 1.14 1.393 1.393 0 0 1-1.12.58H39.16a1.38 1.38 0 0 1-1.12-.58 1.235 1.235 0 0 1-.18-1.14 8.386 8.386 0 0 1 7.93-5.67zm-4.08-6.08a4.085 4.085 0 0 1 8.17 0 4.085 4.085 0 0 1-8.17 0zM57 9H7a3.009 3.009 0 0 0-3 3v5h32a.997.997 0 0 1 .45.11L44.24 21H60v-9a3.009 3.009 0 0 0-3-3zm-14.5 8.04a1.5 1.5 0 0 1 0-3 1.5 1.5 0 0 1 0 3zm6 0a1.5 1.5 0 0 1 0-3 1.5 1.5 0 0 1 0 3zm6 0a1.5 1.5 0 0 1 0-3 1.5 1.5 0 0 1 0 3z" opacity="1" data-original="url(#a)" class=""></path></g></svg>