<svg xmlns="http://www.w3.org/2000/svg" version="1.1" xmlns:xlink="http://www.w3.org/1999/xlink" width="512" height="512" x="0" y="0" viewBox="0 0 512 512" style="enable-background:new 0 0 512 512" xml:space="preserve" class=""><g><linearGradient id="a" x1="17.578" x2="494.422" y1="256" y2="256" gradientUnits="userSpaceOnUse"><stop offset="0" stop-color="#4d62ff"></stop><stop offset=".193" stop-color="#466aff"></stop><stop offset=".492" stop-color="#3480ff"></stop><stop offset=".858" stop-color="#17a3ff"></stop><stop offset="1" stop-color="#0ab3ff"></stop></linearGradient><path fill="url(#a)" d="M322.73 88.25V45.07H41.5v243.61c0 6.63 5.44 12.08 12.08 12.08h257.07c6.63 0 12.08-5.44 12.08-12.08v-91.45l-47.62-47.59c-15.25-15.25-15.25-40.11 0-55.36 12.87-12.87 32.59-14.88 47.62-6.03zM182.1 260.28H81.98c-4.56 0-8.25-3.69-8.25-8.25s3.69-8.28 8.25-8.28H182.1c4.56 0 8.28 3.71 8.28 8.28 0 4.56-3.72 8.25-8.28 8.25zm100.15-74.75c4.56 0 8.25 3.69 8.25 8.25s-3.69 8.25-8.25 8.25H81.98c-4.56 0-8.25-3.69-8.25-8.25s3.69-8.25 8.25-8.25zm-208.52-50c0-4.56 3.69-8.25 8.25-8.25H182.1c4.56 0 8.28 3.69 8.28 8.25s-3.71 8.28-8.28 8.28H81.98c-4.56-.01-8.25-3.72-8.25-8.28zm8.25-49.98c-4.56 0-8.25-3.71-8.25-8.28 0-4.54 3.69-8.25 8.25-8.25h200.27c4.56 0 8.25 3.71 8.25 8.25 0 4.56-3.69 8.28-8.25 8.28zm412.44 119.57v46.18c0 12.44-10.2 22.65-22.65 22.65-12.44 0-22.45-10.2-22.62-22.65l-.23-14.63c-.06-3.97-3.29-7.14-7.23-7.14h-2.07c-2.01 0-3.74.74-5.13 2.15-1.42 1.45-2.13 3.17-2.1 5.19l.23 14.68c.28 19.79 15.11 36.23 34.33 38.61-1.13 6.01-6.41 10.6-12.73 10.6h-86.74c-7.12 0-12.93-5.81-12.93-12.95v-76.73c0-3.54-1.28-6.63-3.8-9.13l-63.98-63.98c-8.79-8.82-8.79-23.22 0-32 8.82-8.82 23.22-8.82 32.03 0l53.89 53.86c2.49 2.52 5.58 3.8 9.13 3.8h71.04c9.78 0 18 2.89 25.68 8.9 10.35 8.13 15.88 19.44 15.88 32.59zm-119.79-97.66c0-19.93 16.27-36.23 36.23-36.23s36.23 16.3 36.23 36.23c0 19.96-16.27 36.23-36.23 36.23s-36.23-16.27-36.23-36.23zm-42.26-78.88H31.84c-7.85 0-14.26-6.43-14.26-14.29S23.98 0 31.84 0h300.53c7.85 0 14.29 6.43 14.29 14.29s-6.44 14.29-14.29 14.29zm-1.9 439.68v37.08c0 3.66-3 6.66-6.66 6.66H212.12c-3.66 0-6.66-3-6.66-6.66v-37.08c0-24.04 19.67-43.74 43.74-43.74h37.53c24.06 0 43.74 19.7 43.74 43.74zm-62.51-128.67c17.01 0 30.87 13.86 30.87 30.87 0 16.98-13.86 30.87-30.87 30.87s-30.87-13.89-30.87-30.87c0-17.01 13.86-30.87 30.87-30.87zM166.51 468.26v37.08c0 3.66-3 6.66-6.66 6.66H48.16c-3.66 0-6.66-3-6.66-6.66v-37.08c0-24.04 19.67-43.74 43.74-43.74h37.53c24.04 0 43.74 19.7 43.74 43.74zm-62.5-128.67c17.01 0 30.87 13.86 30.87 30.87 0 16.98-13.86 30.87-30.87 30.87s-30.87-13.89-30.87-30.87c0-17.01 13.86-30.87 30.87-30.87zm390.41 128.67v37.08c0 3.66-3 6.66-6.66 6.66H376.08c-3.66 0-6.66-3-6.66-6.66v-37.08c0-24.04 19.67-43.74 43.74-43.74h37.53c24.06 0 43.73 19.7 43.73 43.74zm-62.5-66.93c-17.01 0-30.87-13.89-30.87-30.87 0-17.01 13.86-30.87 30.87-30.87s30.87 13.86 30.87 30.87c0 16.98-13.86 30.87-30.87 30.87z" opacity="1" data-original="url(#a)"></path></g></svg>