<svg xmlns="http://www.w3.org/2000/svg" version="1.1" xmlns:xlink="http://www.w3.org/1999/xlink" width="512" height="512" x="0" y="0" viewBox="0 0 64 64" style="enable-background:new 0 0 512 512" xml:space="preserve" class=""><g><linearGradient id="a" x1="4" x2="60" y1="32" y2="32" gradientUnits="userSpaceOnUse"><stop offset="0" stop-color="#00c0ff"></stop><stop offset="1" stop-color="#5558ff"></stop></linearGradient><path fill="url(#a)" d="M4 57a3.009 3.009 0 0 0 3 3h50a3.009 3.009 0 0 0 3-3V13H4zm48-4H12a1 1 0 0 1 0-2h40a1 1 0 0 1 0 2zM18.5 22a2.744 2.744 0 0 1 2.74-2.74h21.52A2.744 2.744 0 0 1 45.5 22v10.18a2.744 2.744 0 0 1-2.74 2.74h-2.62a.727.727 0 0 0-.58.28c-.384.372.116 1.491.25 2.31a1.005 1.005 0 0 1-1.53 1.06l-5.22-3.53a.73.73 0 0 0-.41-.12H21.24a2.744 2.744 0 0 1-2.74-2.74zM12 43h32a1 1 0 0 1 0 2H12a1 1 0 0 1 0-2zm0 4h32a1 1 0 0 1 0 2H12a1 1 0 0 1 0-2zM57 4H7a3.009 3.009 0 0 0-3 3v4h56V7a3.009 3.009 0 0 0-3-3zM20 9.68H8a1 1 0 0 1 0-2h12a1 1 0 0 1 0 2zm.5 22.5V22a.738.738 0 0 1 .74-.74h21.52a.738.738 0 0 1 .74.74v10.18a.738.738 0 0 1-.74.74c-2.216-.046-5.141-.349-5.36 2.64l-3.22-2.17a2.683 2.683 0 0 0-1.53-.47H21.24a.738.738 0 0 1-.74-.74z" opacity="1" data-original="url(#a)" class=""></path></g></svg>