<svg xmlns="http://www.w3.org/2000/svg" version="1.1" xmlns:xlink="http://www.w3.org/1999/xlink" width="512" height="512" x="0" y="0" viewBox="0 0 24 24" style="enable-background:new 0 0 512 512" xml:space="preserve" class=""><g><linearGradient id="a" x1="12" x2="12" y1="2" y2="22" gradientUnits="userSpaceOnUse"><stop offset="0" stop-color="#9f9fff"></stop><stop offset="1" stop-color="#22f"></stop></linearGradient><g fill="url(#a)"><path fill-rule="evenodd" d="M1 3a1 1 0 0 1 1-1h3a1 1 0 0 1 .986.836l.547 3.28A.996.996 0 0 1 7 6h15a1 1 0 0 1 .992 1.124l-1 8A1 1 0 0 1 21 16H7a1 1 0 0 1-.986-.836L4.153 4H2a1 1 0 0 1-1-1zm5.845 4.988L7.847 14h12.27l.75-6H7c-.053 0-.104-.004-.155-.012z" clip-rule="evenodd" fill="" opacity="1"></path><path d="M7 20a2 2 0 1 1 4 0 2 2 0 0 1-4 0zM19 18a2 2 0 1 0 0 4 2 2 0 0 0 0-4z" fill="" opacity="1"></path></g></g></svg>