<svg xmlns="http://www.w3.org/2000/svg" version="1.1" xmlns:xlink="http://www.w3.org/1999/xlink" width="512" height="512" x="0" y="0" viewBox="0 0 24 24" style="enable-background:new 0 0 512 512" xml:space="preserve" class=""><g><linearGradient id="a" x1="3" x2="21" y1="12" y2="12" gradientUnits="userSpaceOnUse"><stop offset="0" stop-color="#02beff"></stop><stop offset="1" stop-color="#535bff"></stop></linearGradient><path fill="url(#a)" d="M10 18c.6 0 1-.4 1-1v-6c0-.6-.4-1-1-1s-1 .4-1 1v6c0 .6.4 1 1 1zM20 6h-4V5c0-1.7-1.3-3-3-3h-2C9.3 2 8 3.3 8 5v1H4c-.6 0-1 .4-1 1s.4 1 1 1h1v11c0 1.7 1.3 3 3 3h8c1.7 0 3-1.3 3-3V8h1c.6 0 1-.4 1-1s-.4-1-1-1zM10 5c0-.6.4-1 1-1h2c.6 0 1 .4 1 1v1h-4zm7 14c0 .6-.4 1-1 1H8c-.6 0-1-.4-1-1V8h10zm-3-1c.6 0 1-.4 1-1v-6c0-.6-.4-1-1-1s-1 .4-1 1v6c0 .6.4 1 1 1z" opacity="1" data-original="url(#a)" class=""></path></g></svg>