<svg xmlns="http://www.w3.org/2000/svg" version="1.1" xmlns:xlink="http://www.w3.org/1999/xlink" width="512" height="512" x="0" y="0" viewBox="0 0 32 32" style="enable-background:new 0 0 512 512" xml:space="preserve" fill-rule="evenodd" class=""><g><linearGradient id="a" x1="0" x2="32" y1="16" y2="16" gradientUnits="userSpaceOnUse"><stop offset="0" stop-color="#0077b6"></stop><stop offset="1" stop-color="#90e0ef"></stop></linearGradient><g fill="url(#a)"><path d="M16 1C7.721 1 1 7.721 1 16s6.721 15 15 15 15-6.721 15-15S24.279 1 16 1zm0 2c7.175 0 13 5.825 13 13s-5.825 13-13 13S3 23.175 3 16 8.825 3 16 3z" fill="" opacity="1"></path><path d="M15 7v9c0 .265.105.52.293.707l6 6a1 1 0 0 0 1.414-1.414L17 15.586V7a1 1 0 0 0-2 0z" fill="" opacity="1"></path></g></g></svg>