<svg xmlns="http://www.w3.org/2000/svg" version="1.1" xmlns:xlink="http://www.w3.org/1999/xlink" width="512" height="512" x="0" y="0" viewBox="0 0 24 24" style="enable-background:new 0 0 512 512" xml:space="preserve" class=""><g><linearGradient id="a" x1="21.78" x2="-.48" y1="-1.69" y2="20.57" gradientUnits="userSpaceOnUse"><stop offset="0" stop-color="#f0f"></stop><stop offset="1" stop-color="#00f"></stop></linearGradient><linearGradient xlink:href="#a" id="b" x1="21.73" x2=".4" y1="-.89" y2="20.44"></linearGradient><linearGradient xlink:href="#a" id="c" x1="29.73" x2="7.47" y1="6.27" y2="28.53"></linearGradient><path fill="url(#a)" d="M12 19H5c-1.65 0-3-1.35-3-3V6c0-.8.31-1.55.88-2.12S4.2 3 5 3h14c.8 0 1.55.31 2.12.88.57.56.88 1.32.88 2.12v5c0 .55-.45 1-1 1s-1-.45-1-1V6a.99.99 0 0 0-1-1H5c-.26 0-.52.11-.71.29S4 5.73 4 6v10c0 .55.45 1 1 1h7c.55 0 1 .45 1 1s-.45 1-1 1z" opacity="1" data-original="url(#a)"></path><path fill="url(#b)" d="M12 12.68c-.55 0-1.09-.15-1.58-.45L6.32 9.7A.994.994 0 0 1 6 8.32c.29-.47.91-.61 1.38-.32l4.1 2.53c.32.2.73.2 1.05 0L16.63 8a1.003 1.003 0 0 1 1.06 1.7l-4.1 2.53c-.49.3-1.03.45-1.58.45z" opacity="1" data-original="url(#b)" class=""></path><g fill="url(#c)"><path d="M18.5 21c-.55 0-1-.45-1-1v-5c0-.55.45-1 1-1s1 .45 1 1v5c0 .55-.45 1-1 1z" fill="" opacity="1"></path><path d="M21 18.5h-5c-.55 0-1-.45-1-1s.45-1 1-1h5c.55 0 1 .45 1 1s-.45 1-1 1z" fill="" opacity="1"></path></g></g></svg>