<svg xmlns="http://www.w3.org/2000/svg" version="1.1" xmlns:xlink="http://www.w3.org/1999/xlink" width="512" height="512" x="0" y="0" viewBox="0 0 64 64" style="enable-background:new 0 0 512 512" xml:space="preserve" class=""><g><linearGradient id="a" x1="4" x2="60" y1="32" y2="32" gradientUnits="userSpaceOnUse"><stop offset="0" stop-color="#00c0ff"></stop><stop offset="1" stop-color="#5558ff"></stop></linearGradient><path fill="url(#a)" d="m56.287 43.989-.93-.31a1 1 0 0 0-.633 1.897l.927.31A3.443 3.443 0 0 1 58 49.146v2.29a.267.267 0 0 1-.26.26H45.51a6.84 6.84 0 0 0-2.515-6.103l3.902-1.298a6.515 6.515 0 0 1 2.015-.323 6.268 6.268 0 1 0-3.725-1.216c-.733.276-4.007 1.241-4.6 1.64l-4.554-1.517c6.252-3.94 3.447-13.861-4.048-13.855-7.494 0-10.3 9.91-4.046 13.855L23.4 44.393c-.602-.386-3.876-1.379-4.588-1.636a6.258 6.258 0 1 0-3.71 1.217 6.545 6.545 0 0 1 2.002.322l3.88 1.29a6.464 6.464 0 0 0-2.524 5.123v.988h-12.2a.267.267 0 0 1-.26-.26v-2.29a3.443 3.443 0 0 1 2.349-3.262l.92-.31a1 1 0 0 0-.639-1.895 5.68 5.68 0 0 0-4.63 5.467v2.29a2.262 2.262 0 0 0 2.26 2.26h12.216a2.561 2.561 0 0 0 2.55 2.413h21.918a2.561 2.561 0 0 0 2.55-2.413H57.74a2.262 2.262 0 0 0 2.26-2.26v-2.29a5.443 5.443 0 0 0-3.713-5.158zm-7.403-10.552a4.269 4.269 0 0 1 0 8.538 4.269 4.269 0 0 1 0-8.538zm-38.037 4.269a4.27 4.27 0 0 1 8.538 0 4.27 4.27 0 0 1-8.538 0zm15.616-1.158c.232-7.3 10.815-7.297 11.046 0-.232 7.3-10.815 7.298-11.046 0zM42.945 54.11H21.027a.566.566 0 0 1-.566-.566V50.71a4.473 4.473 0 0 1 3.063-4.25c9.062-3.13 7.873-3.122 16.923.001a4.473 4.473 0 0 1 3.063 4.25v1.985c-.025.472.179 1.408-.565 1.415zM24.447 16.544l2.49 1.808-.951 2.927a2.29 2.29 0 0 0 3.525 2.561L32 22.031l2.489 1.81a2.29 2.29 0 0 0 3.525-2.562l-.951-2.927 2.49-1.808a2.29 2.29 0 0 0-1.347-4.144H35.13l-.951-2.927a2.291 2.291 0 0 0-4.357 0L28.87 12.4h-3.078a2.302 2.302 0 0 0-1.346 4.144zm1.07-1.943a.267.267 0 0 1 .276-.2h3.804a1 1 0 0 0 .952-.692l1.175-3.618a.291.291 0 0 1 .553 0l1.175 3.618a1 1 0 0 0 .951.691h3.804a.29.29 0 0 1 .17.525l-3.076 2.236a1 1 0 0 0-.364 1.118l1.176 3.619a.29.29 0 0 1-.447.324l-3.078-2.236a1 1 0 0 0-1.176 0l-3.077 2.236a.29.29 0 0 1-.447-.324l1.175-3.619a1 1 0 0 0-.363-1.118l-3.077-2.236a.267.267 0 0 1-.106-.324zM7.84 22.614l1.874 1.362L9 26.179a2.033 2.033 0 0 0 3.127 2.272L14 27.09l1.874 1.362a2.033 2.033 0 0 0 3.128-2.272l-.715-2.203 1.874-1.362a2.032 2.032 0 0 0-1.195-3.677H16.65l-.715-2.203a2.033 2.033 0 0 0-3.867 0l-.715 2.203H9.035a2.042 2.042 0 0 0-1.195 3.677zm4.238-1.677a1 1 0 0 0 .951-.69l.993-2.915c.014.002.94 2.905.95 2.914a1 1 0 0 0 .95.691l3.063.059-2.462 1.789a1 1 0 0 0-.363 1.118l.89 2.93c-.64-.392-2.605-2.099-3.05-1.98-.432-.114-2.56 1.64-3.1 1.944l.941-2.894a1 1 0 0 0-.363-1.118l-2.443-1.848zm31.762 1.677 1.874 1.362-.716 2.203a2.033 2.033 0 0 0 3.128 2.272L50 27.09l1.874 1.362a2.033 2.033 0 0 0 3.128-2.272l-.716-2.203 1.874-1.362a2.032 2.032 0 0 0-1.194-3.677h-2.317l-.716-2.203a2.033 2.033 0 0 0-3.866 0l-.716 2.203h-2.317a2.042 2.042 0 0 0-1.194 3.677zm4.238-1.677a1 1 0 0 0 .95-.69l.994-2.915c.014.002.939 2.905.95 2.914a1 1 0 0 0 .95.691l3.062.059-2.461 1.789a1 1 0 0 0-.364 1.118l.89 2.93c-.64-.392-2.605-2.099-3.049-1.98-.433-.114-2.56 1.64-3.1 1.944l.941-2.894a1 1 0 0 0-.363-1.118l-2.444-1.848z" opacity="1" data-original="url(#a)" class=""></path></g></svg>