<svg xmlns="http://www.w3.org/2000/svg" version="1.1" xmlns:xlink="http://www.w3.org/1999/xlink" width="512" height="512" x="0" y="0" viewBox="0 0 512 512" style="enable-background:new 0 0 512 512" xml:space="preserve" class=""><g><linearGradient id="b" x1="169.994" x2="299.493" y1="71.986" y2="349.055" gradientUnits="userSpaceOnUse"><stop offset="0" stop-color="#3457a0"></stop><stop offset="1" stop-color="#3b5998"></stop></linearGradient><linearGradient id="a"><stop offset="0" stop-color="#3457a0" stop-opacity="0"></stop><stop offset="1" stop-color="#1f3f77"></stop></linearGradient><linearGradient xlink:href="#a" id="c" x1="353.124" x2="-94.448" y1="322.733" y2="15.208" gradientUnits="userSpaceOnUse"></linearGradient><linearGradient xlink:href="#a" id="d" x1="256" x2="256" y1="427.873" y2="497.157" gradientUnits="userSpaceOnUse"></linearGradient><linearGradient id="e" x1="587.778" x2="232.407" y1="422.829" y2="243.638" gradientUnits="userSpaceOnUse"><stop offset="0" stop-color="#3457a0" stop-opacity="0"></stop><stop offset=".325" stop-color="#2a4c8d" stop-opacity=".325"></stop><stop offset=".705" stop-color="#22427d" stop-opacity=".706"></stop><stop offset="1" stop-color="#1f3f77"></stop></linearGradient><path fill="url(#b)" d="M420.422 503.234c-109.504 11.688-219.34 11.688-328.844 0-43.664-4.66-78.152-39.148-82.812-82.816-11.688-109.504-11.688-219.336 0-328.84 4.66-43.664 39.148-78.152 82.812-82.812 109.504-11.688 219.336-11.688 328.84 0 43.668 4.66 78.156 39.148 82.816 82.812 11.688 109.504 11.688 219.336 0 328.84-4.66 43.668-39.144 78.156-82.812 82.816zm0 0" opacity="1" data-original="url(#b)"></path><path fill="url(#a)" d="M475.387 110.098c-4.133-38.746-34.735-69.352-73.485-73.489-97.172-10.367-194.632-10.367-291.804 0-38.746 4.137-69.352 34.743-73.489 73.489-10.367 97.172-10.367 194.632 0 291.8 4.137 38.75 34.743 69.356 73.489 73.489 97.172 10.37 194.632 10.37 291.8 0 38.75-4.133 69.356-34.739 73.489-73.489 10.37-97.168 10.37-194.628 0-291.8zm0 0" opacity="1" data-original="url(#a)"></path><path fill="url(#a)" d="M7.672 409.805c.351 3.539.715 7.078 1.094 10.617 4.66 43.664 39.148 78.152 82.816 82.812 109.504 11.688 219.336 11.688 328.84 0 43.668-4.66 78.152-39.148 82.812-82.812.38-3.54.743-7.078 1.098-10.617zm0 0" opacity="1" data-original="url(#a)"></path><path fill="url(#e)" d="M344.215 85.27c-44.61 0-80.77 36.164-80.77 80.773v60.332h-43.468v74.7l43.468 38.933v171.969c52.352-.254 104.7-3.165 156.977-8.743 43.668-4.66 78.152-39.148 82.812-82.816 8.696-81.477 10.918-163.133 6.672-244.703L419.461 85.27zm0 0" opacity="1" data-original="url(#e)"></path><path fill="#ffffff" d="M263.445 511.977c29.832-.145 59.66-1.157 89.477-3.032v-207.87h59.367l7.172-74.7h-66.54v-47.434c0-10.476 8.493-18.968 18.97-18.968h47.57V85.27h-75.246c-44.61 0-80.77 36.164-80.77 80.773v60.332h-43.468v74.7h43.468zm0 0" opacity="1" data-original="#ffffff" class=""></path></g></svg>