<svg xmlns="http://www.w3.org/2000/svg" version="1.1" xmlns:xlink="http://www.w3.org/1999/xlink" width="512" height="512" x="0" y="0" viewBox="0 0 512 512" style="enable-background:new 0 0 512 512" xml:space="preserve" class=""><g><path d="M496 75.948H16c-8.836 0-16 7.163-16 16v328.04c0 8.837 7.164 16 16 16h480c8.836 0 16-7.163 16-16V91.948c0-8.837-7.164-16-16-16zM256 265.151 70.389 107.948H441.61zm-60.355-9.182L32 394.569v-277.2zm24.756 20.967 25.258 21.392c2.984 2.527 6.662 3.791 10.341 3.791s7.357-1.264 10.341-3.791l25.258-21.393L441.61 403.988H70.391zm95.954-20.967L480 117.369v277.2z" fill="#000000" opacity="1" data-original="#000000" class=""></path></g></svg>