<svg xmlns="http://www.w3.org/2000/svg" version="1.1" xmlns:xlink="http://www.w3.org/1999/xlink" width="512" height="512" x="0" y="0" viewBox="0 0 32 32" style="enable-background:new 0 0 512 512" xml:space="preserve" class=""><g><linearGradient id="a" x1="27.408" x2="3.26" y1="24.17" y2="10.228" gradientUnits="userSpaceOnUse"><stop offset="0" stop-color="#0e18dc"></stop><stop offset=".125" stop-color="#2618dd"></stop><stop offset=".548" stop-color="#7317df"></stop><stop offset=".85" stop-color="#a316e0"></stop><stop offset="1" stop-color="#b516e1"></stop></linearGradient><path fill="url(#a)" d="M9.465 29.184a3.436 3.436 0 0 1-3.376-4.013l.811-4.755a1.43 1.43 0 0 0-.411-1.266l-3.451-3.368a3.429 3.429 0 0 1 1.9-5.848l4.776-.694a1.429 1.429 0 0 0 1.076-.782l2.136-4.327a3.428 3.428 0 0 1 6.148 0l2.136 4.327a1.429 1.429 0 0 0 1.076.782l4.776.694a3.429 3.429 0 0 1 1.9 5.848l-3.455 3.368a1.429 1.429 0 0 0-.411 1.265l.815 4.756a3.429 3.429 0 0 1-4.975 3.615l-4.272-2.245a1.426 1.426 0 0 0-1.329 0l-4.271 2.245a3.433 3.433 0 0 1-1.599.398zM16 4.22a1.4 1.4 0 0 0-1.281.8l-2.136 4.323A3.426 3.426 0 0 1 10 11.219l-4.775.694a1.429 1.429 0 0 0-.791 2.438l3.456 3.368a3.428 3.428 0 0 1 .985 3.035l-.815 4.755a1.429 1.429 0 0 0 2.073 1.507L14.4 24.77a3.435 3.435 0 0 1 3.191 0l4.272 2.246a1.429 1.429 0 0 0 2.073-1.507l-.815-4.756a3.427 3.427 0 0 1 .985-3.034l3.455-3.368a1.429 1.429 0 0 0-.791-2.438L22 11.219a3.426 3.426 0 0 1-2.582-1.876l-2.137-4.327A1.4 1.4 0 0 0 16 4.22z" opacity="1" data-original="url(#a)" class=""></path></g></svg>