<svg xmlns="http://www.w3.org/2000/svg" version="1.1" xmlns:xlink="http://www.w3.org/1999/xlink" width="512" height="512" x="0" y="0" viewBox="0 0 512 512" style="enable-background:new 0 0 512 512" xml:space="preserve" class=""><g><linearGradient id="a" x1="256.024" x2="256.024" y1="516.04" y2="13.12" gradientTransform="matrix(1 0 0 -1 0 512)" gradientUnits="userSpaceOnUse"><stop offset="0" stop-color="#4ddcff"></stop><stop offset="1" stop-color="#2492ff"></stop></linearGradient><path fill="url(#a)" d="M299.8 512c-15.4 0-29.6-6.2-41.6-18.2-30.5-30.6-61.6-61.7-91.6-91.8l-28.7-28.7c-33-33-67.1-67.1-100.7-100.6-18.6-18.4-30.8-42.2-35-68-1.3-7.5-2-15.1-2-22.7C.1 146.4.1 107.4.1 59.3.2 34.2 12.7 14.9 35.3 5 42.6 2 50.5.4 58.4.3c16-.3 32.3-.2 48-.2h17.8c6.3 0 12.5 0 18.8-.1 14.1 0 28.5-.1 42.9.2 33.3.7 61.9 12.5 84.8 35.1 26.3 25.8 52.7 52.3 78.3 78 10.6 10.7 21.2 21.3 31.9 31.9l113 112.9c12.9 12.9 19.1 28.7 18 45.6-.9 13.2-5.8 24.7-14.2 33.3-19.2 19.6-38.9 39.4-57.9 58.5l-3.5 3.5c-11.5 11.5-23 23.1-34.5 34.5-18.7 18.8-38.1 38.1-57 57.3-7.9 8-20.5 18.8-39 20.7-2 .4-4 .5-6 .5zM88.7 32.8c-9.9 0-19.9 0-29.8.2-3.6 0-7.2.7-10.5 2-10.7 4.6-15.5 12.1-15.5 24.3-.1 48-.1 87 0 122.5 0 5.8.5 11.6 1.5 17.3 3.4 19.8 11.8 36.3 25.9 50.3C93.9 282.9 128 317 161 350l28.7 28.7c30.1 30.1 61.1 61.1 91.6 91.8 6.6 6.7 13.1 9.3 21 8.5 6.2-.6 11.9-4 19.1-11.2 19-19.2 38.4-38.6 57.1-57.4 11.5-11.5 23-23 34.4-34.5l3.5-3.5c19-19.1 38.6-38.8 57.7-58.3 2.9-3 4.5-7.1 4.9-12.6.5-7.5-2.2-14-8.4-20.2l-113-112.9-31.9-31.9c-25.5-25.6-51.9-52-78.1-77.8C230.8 42.2 209.7 33.5 185 33c-13.9-.3-28.2-.2-42-.2-6.3 0-12.6.1-19 .1H106.1c-5.6-.1-11.4-.1-17.4-.1zm29 141.9c-31.7-.3-56.7-25.1-56.9-56.6-.7-31 23.9-56.7 54.9-57.3h2.3c31.4 0 56.2 24.7 56.7 56.4.2 15.1-5.7 29.6-16.3 40.3-10.7 10.9-25.3 17.1-40.7 17.2zm.3-81.1h-.2c-14.1.1-24.3 10.3-24.2 24.3.1 13.6 10.5 23.9 24.2 24 6.5-.1 12.7-2.7 17.1-7.4 4.5-4.5 7-10.6 6.9-16.9-.1-13.5-10.6-24-23.8-24z" opacity="1" data-original="url(#a)" class=""></path></g></svg>