<svg xmlns="http://www.w3.org/2000/svg" version="1.1" xmlns:xlink="http://www.w3.org/1999/xlink" width="512" height="512" x="0" y="0" viewBox="0 0 512 512" style="enable-background:new 0 0 512 512" xml:space="preserve" class=""><g><path d="M478.047 275.945A130.676 130.676 0 0 1 440.9 309.12M266.485 124.971C289.819 90.21 329.488 67.334 374.5 67.334c71.797 0 130 58.203 130 130 0 18.456-3.846 36.014-10.78 51.915M297.893 451.997c-23.825 29.717-60.432 48.745-101.483 48.745-71.797 0-130-58.203-130-130 0-41.014 18.993-77.592 48.664-101.418M218.835 242.67c39.907 6.939 73.568 32.075 92.122 66.548M373.647 422.133V353.62c0-5.834 6.368-9.434 11.367-6.426l56.927 34.257c4.844 2.915 4.844 9.937 0 12.852l-56.927 34.257c-4.999 3.007-11.367-.593-11.367-6.427z" style="stroke-width:15;stroke-linecap:round;stroke-linejoin:round;stroke-miterlimit:10;" fill="none" stroke="#000000" stroke-width="15" stroke-linecap="round" stroke-linejoin="round" stroke-miterlimit="10" data-original="#000000" class=""></path><path d="M429.5 464.639H312.706c-8.284 0-15-6.716-15-15V324.113c0-8.284 6.716-15 15-15H489.5c8.284 0 15 6.716 15 15v125.526c0 8.284-6.716 15-15 15h-30M66.409 32.4c20.43-13.369 44.853-21.143 71.091-21.143 71.797 0 130 58.203 130 130s-58.203 130-130 130-130-58.203-130-130c0-34.503 13.442-65.867 35.374-89.141" style="stroke-width:15;stroke-linecap:round;stroke-linejoin:round;stroke-miterlimit:10;" fill="none" stroke="#000000" stroke-width="15" stroke-linecap="round" stroke-linejoin="round" stroke-miterlimit="10" data-original="#000000" class=""></path><path d="M86.094 159.246c-12.426 2.358-19.684 9.777-19.684 19.466 0 9.688 10.074 17.507 22.5 15.149 12.426-2.358 22.5-12.468 22.5-31.198 0-.001-12.89-5.775-25.316-3.417zM164.844 180.347c-12.426 2.358-19.684 9.777-19.684 19.466 0 9.688 10.074 17.507 22.5 15.149 12.426-2.358 22.5-12.468 22.5-31.198 0-.001-12.89-5.775-25.316-3.417z" style="stroke-width:15;stroke-linecap:round;stroke-linejoin:round;stroke-miterlimit:10;" fill="none" stroke="#000000" stroke-width="15" stroke-linecap="round" stroke-linejoin="round" stroke-miterlimit="10" data-original="#000000" class=""></path><path d="M190.16 183.763V95.716a7.499 7.499 0 0 0-5.559-7.244l-63.75-17.082c-4.763-1.276-9.441 2.313-9.441 7.244v84.028M188.176 119.429l-74.782-20.038M200.659 431.278c41.335-28.369 59.767-51.115 61.559-75.394 1.609-21.804-14.815-41.194-36.672-41.726-11.588-.282-22.027 4.659-29.136 12.633-7.109-7.974-17.548-12.916-29.136-12.633-21.857.532-38.282 19.922-36.672 41.726 1.792 24.28 20.224 47.025 61.559 75.394a7.52 7.52 0 0 0 8.498 0zM331.41 245.611h-10c-8.284 0-15-6.716-15-15V174.67c0-8.284 6.716-15 15-15h10c8.284 0 15 6.716 15 15v55.941c0 8.284-6.716 15-15 15zM431.41 245.611h-10c-8.284 0-15-6.716-15-15V174.67c0-8.284 6.716-15 15-15h10c8.284 0 15 6.716 15 15v55.941c0 8.284-6.716 15-15 15zM346.41 187.64h60M346.41 217.64h60" style="stroke-width:15;stroke-linecap:round;stroke-linejoin:round;stroke-miterlimit:10;" fill="none" stroke="#000000" stroke-width="15" stroke-linecap="round" stroke-linejoin="round" stroke-miterlimit="10" data-original="#000000" class=""></path></g></svg>