<svg xmlns="http://www.w3.org/2000/svg" version="1.1" xmlns:xlink="http://www.w3.org/1999/xlink" width="512" height="512" x="0" y="0" viewBox="0 0 32 32" style="enable-background:new 0 0 512 512" xml:space="preserve" class=""><g><path d="M9.707 23.293a1 1 0 0 1 0 1.414l-3 3a1 1 0 0 1-1.414 0l-3-3a1 1 0 0 1 1.414-1.414L5 24.586V5a1 1 0 0 1 2 0v19.586l1.293-1.293a1 1 0 0 1 1.414 0zM29 5H13a1 1 0 0 0 0 2h16a1 1 0 0 0 0-2zm-4 7H13a1 1 0 0 0 0 2h12a1 1 0 0 0 0-2zm-4 7h-8a1 1 0 0 0 0 2h8a1 1 0 0 0 0-2zm-4 7h-4a1 1 0 0 0 0 2h4a1 1 0 0 0 0-2z" fill="#000000" opacity="1" data-original="#000000" class=""></path></g></svg>