<svg xmlns="http://www.w3.org/2000/svg" version="1.1" xmlns:xlink="http://www.w3.org/1999/xlink" width="512" height="512" x="0" y="0" viewBox="0 0 24 24" style="enable-background:new 0 0 512 512" xml:space="preserve" class=""><g><linearGradient id="a" x1="4.056" x2="19.944" y1="19.944" y2="4.056" gradientUnits="userSpaceOnUse"><stop offset="0" stop-color="#5433ff"></stop><stop offset="1" stop-color="#20bdff"></stop></linearGradient><path fill="url(#a)" d="M19 4.25H5A2.752 2.752 0 0 0 2.25 7v10A2.752 2.752 0 0 0 5 19.75h14A2.752 2.752 0 0 0 21.75 17V7A2.752 2.752 0 0 0 19 4.25zm0 1.5c.04 0 .074.019.113.023l-5.842 5.007c-.707.606-1.834.606-2.541 0L4.888 5.773c.039-.004.073-.023.113-.023h14zM20.25 17c0 .689-.561 1.25-1.25 1.25H5c-.689 0-1.25-.561-1.25-1.25V7c0-.068.028-.128.039-.193l5.964 5.111a3.454 3.454 0 0 0 4.494 0l5.964-5.111c.011.065.039.125.039.193z" opacity="1" data-original="url(#a)"></path></g></svg>