<svg xmlns="http://www.w3.org/2000/svg" version="1.1" xmlns:xlink="http://www.w3.org/1999/xlink" width="512" height="512" x="0" y="0" viewBox="0 0 79.2 79.2" style="enable-background:new 0 0 512 512" xml:space="preserve" class=""><g><g fill-rule="evenodd" clip-rule="evenodd"><path d="M74.691 35.384V12.555a5.846 5.846 0 0 0-5.846-5.846H5.846A5.846 5.846 0 0 0 0 12.555v48.38a5.846 5.846 0 0 0 5.846 5.846h31.353a1.25 1.25 0 0 0 0-2.5H5.846A3.346 3.346 0 0 1 2.5 60.935v-48.38a3.346 3.346 0 0 1 3.346-3.346h62.999a3.342 3.342 0 0 1 3.346 3.346v22.829a1.251 1.251 0 0 0 2.5 0zM55.58 66.781h13.265a5.843 5.843 0 0 0 5.846-5.846V54.43a1.25 1.25 0 0 0-2.5 0v6.505a3.346 3.346 0 0 1-3.346 3.346H57.152c-.976 0-2.262 2.5-1.572 2.5z" fill="#000000" opacity="1" data-original="#000000"></path><path d="m78.032 44.788.001-.001c1.615-1.767 1.347-3.777.44-5.721-.912-1.955-2.559-3.597-4.325-4.28-2.038-.789-3.948-1.117-5.692.517l-.001.001c-9.095 8.544-14.84 14.32-24.196 24.287a5.003 5.003 0 0 0-1.129 1.918c-.443 1.413-1.73 6.495-2.277 8.671a1.86 1.86 0 0 0 2.271 2.25c2.175-.563 7.271-1.895 8.653-2.339a5.028 5.028 0 0 0 1.823-1.06v-.001c9.909-8.994 15.777-14.795 24.432-24.242zm-34.488 24.95c.61-2.421 1.596-6.286 1.971-7.48.11-.35.306-.678.567-.956 9.312-9.921 15.031-15.671 24.084-24.175.94-.88 1.982-.435 3.08-.01 1.225.474 2.329 1.65 2.961 3.006.471 1.009.818 2.06-.019 2.977-8.597 9.383-14.426 15.145-24.268 24.079a2.494 2.494 0 0 1-.908.532c-1.17.376-5.044 1.396-7.468 2.027z" fill="#000000" opacity="1" data-original="#000000"></path><path d="M49.262 68.66c.312-1.427-3.425-5.118-4.804-4.581-.524 1.888-.997 3.633-1.299 4.945a.771.771 0 0 0 .248.746.955.955 0 0 0 .82.219c1.475-.294 3.103-.776 5.035-1.329zM51.508 33.893 31.334 21.965a3.314 3.314 0 0 0-4.999 2.852v23.855a3.313 3.313 0 0 0 4.999 2.852l20.174-11.927a3.313 3.313 0 0 0 0-5.704zm-1.272 2.152a.813.813 0 0 1 0 1.4L30.062 49.372a.814.814 0 0 1-1.227-.7V24.817a.814.814 0 0 1 1.227-.7zM65.596 40.469l4.772 4.731a1.25 1.25 0 0 0 1.76-1.775l-4.772-4.731a1.25 1.25 0 0 0-1.76 1.775z" fill="#000000" opacity="1" data-original="#000000"></path></g></g></svg>