<svg xmlns="http://www.w3.org/2000/svg" version="1.1" xmlns:xlink="http://www.w3.org/1999/xlink" width="512" height="512" x="0" y="0" viewBox="0 0 24 24" style="enable-background:new 0 0 512 512" xml:space="preserve" class=""><g><linearGradient id="a" x1="4.85" x2="19.15" y1="21.737" y2="7.436" gradientUnits="userSpaceOnUse"><stop offset="0" stop-color="#5433ff"></stop><stop offset="1" stop-color="#20bdff"></stop></linearGradient><path fill="url(#a)" d="M12 11.75c2.619 0 4.75-2.131 4.75-4.75S14.619 2.25 12 2.25 7.25 4.381 7.25 7s2.131 4.75 4.75 4.75zm0-8c1.792 0 3.25 1.458 3.25 3.25s-1.458 3.25-3.25 3.25S8.75 8.792 8.75 7 10.208 3.75 12 3.75zm3 9.5H9c-3.17 0-5.75 2.58-5.75 5.75A2.752 2.752 0 0 0 6 21.75h12A2.752 2.752 0 0 0 20.75 19c0-3.17-2.58-5.75-5.75-5.75zm3 7H6c-.689 0-1.25-.561-1.25-1.25A4.255 4.255 0 0 1 9 14.75h6A4.255 4.255 0 0 1 19.25 19c0 .689-.561 1.25-1.25 1.25z" opacity="1" data-original="url(#a)" class=""></path></g></svg>