<?xml version="1.0" standalone="no"?>
<!DOCTYPE svg PUBLIC "-//W3C//DTD SVG 20010904//EN"
 "http://www.w3.org/TR/2001/REC-SVG-20010904/DTD/svg10.dtd">
<svg version="1.0" xmlns="http://www.w3.org/2000/svg"
 width="1300.000000pt" height="1300.000000pt" viewBox="0 0 1300.000000 1300.000000"
 preserveAspectRatio="xMidYMid meet">

<g transform="translate(0.000000,1300.000000) scale(0.100000,-0.100000)"
fill="#000000" stroke="none">
<path d="M6225 11393 c-1223 -73 -2333 -570 -3190 -1428 -925 -926 -1434
-2155 -1435 -3460 0 -1058 342 -2088 974 -2930 319 -425 721 -812 1151 -1107
604 -414 1300 -690 2024 -803 431 -67 947 -72 1386 -14 176 23 405 67 421 80
6 5 13 6 17 3 10 -10 283 64 482 131 1099 367 2036 1121 2640 2125 397 660
627 1397 686 2195 14 197 6 635 -15 828 -153 1379 -838 2582 -1943 3414 -843
636 -1895 981 -2956 971 -106 -1 -214 -3 -242 -5z m525 -293 c1112 -64 2147
-518 2949 -1295 753 -728 1236 -1701 1366 -2746 51 -410 41 -901 -26 -1284
-12 -66 -23 -133 -24 -150 -2 -16 -5 -37 -8 -45 -3 -8 -26 -99 -51 -201 -237
-970 -828 -1874 -1637 -2505 -685 -534 -1481 -853 -2369 -950 -192 -21 -666
-24 -855 -6 -659 64 -1251 245 -1809 551 -688 378 -1284 942 -1699 1608 -379
609 -607 1290 -678 2023 -16 163 -16 628 0 800 118 1295 751 2450 1784 3253
857 667 1964 1009 3057 947z m730 -44 c0 -2 -8 -10 -17 -17 -16 -13 -17 -12
-4 4 13 16 21 21 21 13z"/>
<path d="M6349 10080 c-152 -24 -288 -97 -414 -224 -76 -76 -98 -106 -138
-186 -93 -189 -109 -388 -46 -578 12 -35 19 -65 18 -66 -2 -2 -35 -14 -74 -26
-481 -157 -846 -521 -1019 -1018 -123 -354 -174 -677 -179 -1132 -1 -124 2
-468 7 -765 9 -570 5 -680 -34 -950 -42 -282 -91 -362 -290 -466 -142 -74
-207 -130 -249 -211 -111 -218 27 -489 280 -547 27 -7 257 -11 586 -11 l543 0
6 -27 c39 -180 116 -351 214 -481 148 -197 375 -350 620 -417 116 -32 340 -45
469 -26 354 52 685 293 851 621 33 66 88 225 105 303 l5 27 538 0 c452 0 547
2 597 15 83 22 132 49 188 103 156 152 167 374 27 526 -24 25 -97 83 -164 128
-253 171 -297 229 -356 474 -82 339 -96 647 -60 1314 11 201 20 438 20 527 0
521 -103 978 -296 1305 -133 223 -272 373 -477 512 -135 91 -251 146 -444 211
-10 3 -10 11 -2 32 165 415 -73 893 -503 1013 -83 23 -245 33 -329 20z m314
-327 c80 -38 182 -131 220 -201 67 -124 75 -276 21 -407 -56 -136 -32 -264 67
-348 28 -25 71 -46 138 -67 53 -18 142 -54 198 -80 439 -208 694 -625 779
-1275 21 -158 24 -584 6 -840 -45 -645 -32 -1034 49 -1395 41 -186 77 -285
140 -386 69 -109 160 -195 332 -313 74 -50 138 -101 144 -114 15 -31 -5 -85
-40 -111 l-28 -21 -2194 -3 c-1741 -2 -2201 0 -2230 10 -39 13 -68 45 -80 86
-9 30 38 75 121 117 211 106 339 250 408 459 21 63 51 240 73 436 15 132 17
223 13 615 -9 888 -5 1228 14 1370 54 416 164 740 327 967 162 228 384 385
666 474 131 41 182 75 228 149 40 64 48 178 18 246 -37 83 -46 135 -41 231 6
114 32 184 97 265 58 71 136 127 216 153 47 16 82 19 165 17 94 -2 112 -6 173
-34z m587 -6029 c0 -23 -98 -163 -158 -225 -288 -302 -738 -356 -1083 -130
-116 76 -269 249 -305 344 -6 16 35 17 770 17 427 0 776 -3 776 -6z"/>
</g>
</svg>
