<svg xmlns="http://www.w3.org/2000/svg" version="1.1" xmlns:xlink="http://www.w3.org/1999/xlink" width="512" height="512" x="0" y="0" viewBox="0 0 64 64" style="enable-background:new 0 0 512 512" xml:space="preserve" class=""><g><linearGradient id="a" x1="32" x2="32" y1="63" y2="1" gradientUnits="userSpaceOnUse"><stop offset="0" stop-color="#9f2fff"></stop><stop offset="1" stop-color="#0bb1d3"></stop></linearGradient><path fill="url(#a)" d="M39 21c1.654 0 3-1.346 3-3s-1.346-3-3-3-3 1.346-3 3 1.346 3 3 3zm0-4a1 1 0 1 1 0 2 1 1 0 0 1 0-2zm21 8h-7.473c-.676-2.17-2.017-4.602-3.753-7 3.686-5.092 5.624-10.355 3.102-12.876-1.817-1.82-5.067-1.308-8.648.496C42.228 2.831 40.817 1 39 1c-1.7 0-3.148 1.598-4.228 4.621-3.58-1.803-6.83-2.315-8.648-.497-1.277 1.276-1.409 3.257-.753 5.561A16.89 16.89 0 0 0 18 9C8.626 9 1 16.626 1 26c0 7.994 5.553 14.699 13 16.505v1.496c0 .537.153 1.034.401 1.471A2.994 2.994 0 0 0 13 48.001V58c0 2.757 2.243 5 5 5s5-2.243 5-5v-9.999a2.994 2.994 0 0 0-1.401-2.529c.248-.437.401-.934.401-1.471v-1.483a16.951 16.951 0 0 0 10.624-7.857c.419.217.888.339 1.376.339v4c-1.654 0-3 1.346-3 3v4c0 1.654 1.346 3 3 3v4c-1.654 0-3 1.346-3 3v4c0 1.654 1.346 3 3 3h26c1.654 0 3-1.346 3-3v-4c0-1.654-1.346-3-3-3v-4c1.654 0 3-1.346 3-3v-4c0-1.654-1.346-3-3-3v-4c1.654 0 3-1.346 3-3v-4c0-1.654-1.346-3-3-3zm-9.538 4.462c-1.001 1.001-3.487.638-6.64-1.002.445-1.72.765-3.67.958-5.717a44.933 44.933 0 0 0 2.735-3.089c3.222 4.601 4.265 8.49 2.947 9.808zM39 33c-.642 0-1.615-1.13-2.448-3.596A34.975 34.975 0 0 0 39 27.775a35.37 35.37 0 0 0 2.453 1.633C40.686 31.707 39.763 33 39 33zm-12.876-2.124c.369.37.802.635 1.28.822A11.034 11.034 0 0 1 18 37c-6.065 0-11-4.935-11-11s4.935-11 11-11c3.981 0 7.576 2.126 9.536 5.558-2.517 4.219-3.511 8.22-1.412 10.318zm1.414-1.414c-1.318-1.318-.275-5.206 2.947-9.808a45.01 45.01 0 0 0 6.862 6.861c-4.603 3.221-8.492 4.265-9.809 2.947zm15.308-15.328a48.814 48.814 0 0 1 0 7.732A43.54 43.54 0 0 1 39 25.291c-1.262-.994-2.558-2.137-3.856-3.435S32.702 19.262 31.709 18a43.787 43.787 0 0 1 3.435-3.856 43.474 43.474 0 0 1 3.857-3.435 43.516 43.516 0 0 1 3.845 3.425zm-2.195-4.651c.461-.323.916-.63 1.36-.908.18.759.341 1.587.48 2.48a43.572 43.572 0 0 0-1.84-1.572zm4.325 6.935c.463.532.905 1.06 1.316 1.582a42.03 42.03 0 0 1-1.316 1.582 52.062 52.062 0 0 0 0-3.164zm-4.323 10.097c.621-.5 1.235-1.02 1.836-1.559a32.551 32.551 0 0 1-.476 2.462c-.445-.279-.898-.58-1.36-.903zm8.114-20.536c.742 0 1.322.186 1.695.559 1.318 1.318.275 5.206-2.947 9.808a45.17 45.17 0 0 0-2.735-3.089c-.194-2.049-.514-4.001-.96-5.722 1.979-1.03 3.696-1.556 4.947-1.556zM39 3c.763 0 1.686 1.294 2.454 3.595a34.79 34.79 0 0 0-2.455 1.632A34.935 34.935 0 0 0 36.551 6.6C37.384 4.131 38.358 3 39 3zM27.538 6.538c.373-.373.952-.559 1.695-.559 1.882 0 4.815 1.192 8.115 3.503a45.063 45.063 0 0 0-6.864 6.864c-3.221-4.601-4.264-8.49-2.946-9.808zM21 58c0 1.654-1.346 3-3 3s-3-1.346-3-3v-9.999a1 1 0 0 1 1-1h4a1 1 0 0 1 1 1zm-1-13.999a1 1 0 0 1-1 1h-2a1 1 0 0 1-1-1v-1.129c.657.077 1.322.128 2 .128.677 0 1.341-.054 2-.131zM18 41C9.729 41 3 34.271 3 26s6.729-15 15-15c3.101 0 6.064.94 8.589 2.709.701 1.401 1.596 2.851 2.638 4.291-.165.228-.325.455-.483.683A12.94 12.94 0 0 0 18 13c-7.168 0-13 5.832-13 13s5.832 13 13 13c4.85 0 9.3-2.73 11.528-7.001.747-.035 1.551-.186 2.4-.445A14.962 14.962 0 0 1 18 41zm15.548-8.11c.325-.736.589-1.507.811-2.299.138-.066.277-.136.416-.206.376 1.05.798 1.918 1.258 2.615H34a.999.999 0 0 1-.452-.11zM61 56v4a1 1 0 0 1-1 1H34a1 1 0 0 1-1-1v-4a1 1 0 0 1 1-1h26a1 1 0 0 1 1 1zm-3-3H36v-4h22zm3-11v4a1 1 0 0 1-1 1H34a1 1 0 0 1-1-1v-4a1 1 0 0 1 1-1h26a1 1 0 0 1 1 1zm-3-3H36v-4h22zm3-7a1 1 0 0 1-1 1H41.969c.474-.717.893-1.6 1.257-2.615 2.029 1.022 3.953 1.632 5.569 1.632 1.236 0 2.293-.354 3.081-1.142.951-.951 1.25-2.301 1.079-3.876H60a1 1 0 0 1 1 1zm-4 25h2v2h-2zm-8 0h2v2h-2zm4 0h2v2h-2zM43 43h2v2h-2zm-4 0h2v2h-2zm-4 0h2v2h-2zM9 25h2v2H9zm12 0h2v2h-2zm-8 0h2v2h-2zm4 0h2v2h-2z" opacity="1" data-original="url(#a)" class=""></path></g></svg>