<?xml version="1.0" standalone="no"?>
<!DOCTYPE svg PUBLIC "-//W3C//DTD SVG 20010904//EN"
 "http://www.w3.org/TR/2001/REC-SVG-20010904/DTD/svg10.dtd">
<svg version="1.0" xmlns="http://www.w3.org/2000/svg"
 width="225.000000pt" height="225.000000pt" viewBox="0 0 225.000000 225.000000"
 preserveAspectRatio="xMidYMid meet">

<g transform="translate(0.000000,225.000000) scale(0.100000,-0.100000)"
fill="#000000" stroke="none">
<path d="M939 2144 c-133 -24 -283 -86 -404 -167 -76 -51 -208 -184 -262 -262
-244 -360 -244 -816 0 -1180 51 -76 184 -208 262 -262 389 -263 898 -240 1253
57 350 292 468 786 288 1202 -71 163 -172 295 -309 404 -233 184 -538 261
-828 208z m356 -39 c380 -67 692 -355 792 -733 22 -83 26 -119 26 -247 1 -108
-4 -169 -16 -217 -92 -371 -363 -649 -726 -745 -133 -36 -343 -38 -474 -5
-369 92 -637 356 -739 730 -31 111 -31 363 0 474 53 195 149 356 286 485 233
217 544 311 851 258z"/>
<path d="M1040 1651 c-83 -26 -159 -90 -201 -171 -20 -37 -24 -60 -24 -135 0
-107 19 -156 90 -227 l46 -45 -67 -39 c-109 -64 -187 -166 -219 -289 -26 -103
-17 -155 27 -155 23 0 34 24 41 91 20 210 242 377 451 340 177 -31 318 -180
333 -351 6 -62 20 -84 49 -78 33 6 39 32 26 109 -25 146 -119 278 -242 343
l-56 29 47 44 c67 62 93 128 94 228 0 68 -4 89 -28 137 -53 108 -167 179 -285
177 -31 0 -68 -4 -82 -8z m212 -106 c69 -49 101 -104 106 -179 5 -79 -10 -127
-56 -178 -51 -57 -105 -81 -177 -81 -133 0 -235 103 -235 238 0 66 16 108 59
157 51 59 103 80 188 76 61 -3 78 -8 115 -33z"/>
</g>
</svg>
