<svg xmlns="http://www.w3.org/2000/svg" version="1.1" xmlns:xlink="http://www.w3.org/1999/xlink" width="512" height="512" x="0" y="0" viewBox="0 0 512 512" style="enable-background:new 0 0 512 512" xml:space="preserve" class=""><g><linearGradient id="a" x1="256" x2="256" y1="502.25" y2="9.75" gradientUnits="userSpaceOnUse"><stop offset="0" stop-color="#1751ff"></stop><stop offset="1" stop-color="#17a0ff"></stop></linearGradient><path fill="url(#a)" fill-rule="evenodd" d="m394.144 344.625 42.174 42.174c14.187 14.187 14.187 37.33 0 51.517l-50.133 50.132c-13.884 13.883-33.822 17.623-51.791 9.709C191.29 435.138 76.857 320.705 13.837 177.601c-7.913-17.968-4.174-37.907 9.709-51.79l50.133-50.133c14.187-14.187 37.33-14.187 51.517 0l42.174 42.174c14.187 14.187 14.185 37.332 0 51.517l-37.563 37.563a626.397 626.397 0 0 0 175.256 175.256l37.563-37.562c14.185-14.185 37.33-14.187 51.517 0zm-53.577-78.345c6.899 0 12.5-5.597 12.5-12.5 0-52.305-42.553-94.862-94.862-94.862-6.898 0-12.5 5.602-12.5 12.5s5.602 12.5 12.5 12.5c38.518 0 69.862 31.34 69.862 69.862 0 6.903 5.597 12.5 12.5 12.5zm74.268 0c-6.913 0-12.5-5.597-12.5-12.5 0-79.474-64.66-144.125-144.13-144.125-6.898 0-12.5-5.597-12.5-12.5s5.602-12.5 12.5-12.5c93.262 0 169.13 75.868 169.13 169.125 0 6.903-5.602 12.5-12.5 12.5zm62.4-12.5c0-120.778-98.251-219.034-219.03-219.034-6.898 0-12.5-5.592-12.5-12.5s5.602-12.495 12.5-12.495c65.181 0 126.472 25.381 172.558 71.472s71.491 107.377 71.491 172.558c0 6.903-5.592 12.5-12.534 12.5-6.894 0-12.485-5.597-12.485-12.5z" opacity="1" data-original="url(#a)"></path></g></svg>