<svg xmlns="http://www.w3.org/2000/svg" version="1.1" xmlns:xlink="http://www.w3.org/1999/xlink" width="512" height="512" x="0" y="0" viewBox="0 0 32 32" style="enable-background:new 0 0 512 512" xml:space="preserve" class=""><g><path d="m28.641 21.59-4.326-3.07a5.886 5.886 0 0 0-1.098-.607c-.905-.368-1.771-.317-2.569.151-.594.282-1.388 1.112-2.051 1.777-2.204-1.388-4.904-4.081-6.46-6.444l-.001-.002c.58-.608 1.453-1.425 1.76-2.028.502-.826.554-1.712.163-2.616a5.433 5.433 0 0 0-.631-1.11L10.411 3.39C9.801 2.517 8.804 2.01 7.666 2c-1.243 0-2.391.509-3.372 1.477-2.106 1.877-2.771 4.644-1.921 8.002C4.26 18.93 13.351 27.954 20.727 29.695c2.826.728 5.958.204 7.796-2.028.672-.755 1.472-1.961 1.463-3.417-.017-1.16-.491-2.089-1.345-2.66zm-1.622 4.757c-1.321 1.531-3.282 2-5.833 1.4-6.653-1.571-15.17-10.029-16.873-16.761-.665-2.625-.224-4.649 1.348-6.05.972-.874 2.121-1.445 3.116-.395.322.504 3.303 4.521 3.438 4.985.16.368.11.573-.062.86-.221.413-1.135 1.262-1.507 1.677-.615.553-.704 1.54-.227 2.362 1.698 2.606 4.707 5.606 7.179 7.149.691.406 1.721.447 2.285-.198.487-.451 1.248-1.333 1.759-1.579.443-.323 1.054.045 1.531.364l4.331 3.073c.924.666.386 2.193-.485 3.113z" fill="#000000" opacity="1" data-original="#000000" class=""></path></g></svg>