<svg xmlns="http://www.w3.org/2000/svg" version="1.1" xmlns:xlink="http://www.w3.org/1999/xlink" width="512" height="512" x="0" y="0" viewBox="0 0 512 512" style="enable-background:new 0 0 512 512" xml:space="preserve" class=""><g><path d="M248.836 182c-40.8 0-74 33.195-74 74s33.2 74 74 74c40.805 0 74-33.195 74-74s-33.195-74-74-74zm0 128c-29.774 0-54-24.223-54-54s24.226-54 54-54c29.777 0 54 24.223 54 54s-24.223 54-54 54zm0 0" fill="#000000" opacity="1" data-original="#000000"></path><path d="M441.344 256a280.65 280.65 0 0 0 7.566-10.352c31.672-45.597 39.457-87.437 21.918-117.812-17.539-30.379-57.668-44.559-112.988-39.93-4.18.352-8.418.817-12.7 1.375-4.23-10.152-8.886-19.664-13.93-28.46 4.478-5.758 7.15-12.981 7.15-20.821 0-18.746-15.255-34-34-34a33.795 33.795 0 0 0-17.727 5c-11.887-7.305-24.574-11-37.797-11-35.082 0-67.422 27.602-91.066 77.715a282.919 282.919 0 0 0-5.098 11.508c-32.89-4.305-62.324-2.418-85.445 6.265-5.172 1.942-7.786 7.707-5.844 12.875 1.941 5.172 7.707 7.79 12.875 5.848 18.945-7.117 43.441-8.828 71.101-5.664-8.07 23.57-14.086 49.695-17.859 77.387-22.164 17.152-41.8 35.43-58.145 54.12-16.539-22.35-27.293-44.398-30.601-64.34-.906-5.448-6.05-9.14-11.504-8.23-5.445.903-9.133 6.055-8.227 11.5 4.04 24.344 17.106 50.75 37.247 77.063-6.657 8.71-12.583 17.469-17.668 26.203-7.22-.992-14.801.305-21.586 4.223-7.868 4.539-13.493 11.87-15.844 20.644-2.348 8.77-1.145 17.934 3.398 25.797 3.18 5.508 7.73 9.914 13.184 12.867-.442 14.25 2.601 27.145 9.09 38.383 15.363 26.606 48.05 40.785 93.101 40.785 6.387 0 13.024-.285 19.89-.86 4.216-.35 8.49-.82 12.806-1.386 1.648 3.95 3.355 7.82 5.129 11.578C181.414 484.398 213.754 512 248.836 512s67.426-27.602 91.07-77.715c1.77-3.75 3.469-7.605 5.11-11.543 10.921 1.418 21.5 2.156 31.652 2.195 2.828 6.965 7.852 12.77 14.469 16.59a33.814 33.814 0 0 0 16.941 4.547c11.762 0 23.215-6.097 29.504-16.992a33.796 33.796 0 0 0 4.535-17.848c12.567-6.746 22.219-15.828 28.711-27.07 17.54-30.375 9.754-72.215-21.918-117.812A280.65 280.65 0 0 0 441.344 256zm-81.836-148.16c46.488-3.89 80.75 7.043 94 29.996 13.254 22.95 5.59 58.09-21.024 96.402a241.759 241.759 0 0 1-4.191 5.836c-16.395-18.762-36.012-37.02-58.094-54.12-3.77-27.79-9.781-53.919-17.797-77.407 2.383-.27 4.758-.512 7.106-.707zM301.836 347.8c-17.543 10.13-35.324 19.048-53.008 26.653-17.637-7.594-35.414-16.504-52.992-26.652-17.559-10.14-34.18-21.137-49.586-32.672-2.25-19.082-3.414-38.906-3.414-59.129 0-20.262 1.168-40.121 3.426-59.23 15.402-11.485 32.008-22.426 49.574-32.57 17.512-10.11 35.258-19.016 52.91-26.61 17.695 7.574 35.531 16.472 53.09 26.61 17.504 10.105 34.082 21.015 49.476 32.495 2.31 19.22 3.524 39.133 3.524 59.305 0 20.262-1.164 40.117-3.422 59.227-15.426 11.511-32.035 22.445-49.578 32.574zm45.48-5.058c-3.734 20.582-8.812 39.992-15.136 57.754-18.446-3.406-37.774-8.726-57.5-15.82a534.125 534.125 0 0 0 37.16-19.559 534.598 534.598 0 0 0 35.476-22.375zm-124.359 41.922c-19.644 7.05-38.96 12.36-57.477 15.781-6.316-17.75-11.39-37.14-15.117-57.699a533.145 533.145 0 0 0 35.477 22.371 533.33 533.33 0 0 0 37.117 19.547zm51.754-257.324c19.637-7.047 38.941-12.356 57.453-15.777 6.211 17.632 11.262 37.035 15.008 57.597a533.823 533.823 0 0 0-35.332-22.277 533.316 533.316 0 0 0-37.13-19.543zm98.488 86.738c15.942 13.5 30.207 27.582 42.438 41.922-12.23 14.34-26.5 28.426-42.442 41.926a534.1 534.1 0 0 0 1.64-41.926c0-14.207-.558-28.215-1.636-41.922zM318.36 40c0 7.719-6.28 14-14 14s-14-6.281-14-14 6.282-14 14-14 14 6.281 14 14zm-142.5 46.25C195.72 44.148 222.32 20 248.836 20c8.387 0 16.559 2.14 24.387 6.36A33.824 33.824 0 0 0 270.359 40c0 18.746 15.25 34 34 34 3.63 0 7.125-.578 10.407-1.637 3.535 6.328 6.875 13.098 9.992 20.262-24.445 4.82-50.063 12.68-75.91 23.254-26.055-10.664-51.676-18.504-75.86-23.3a247.82 247.82 0 0 1 2.871-6.329zm-10.394 25.348c18.289 3.425 37.61 8.738 57.363 15.808a534.442 534.442 0 0 0-36.992 19.477 534.348 534.348 0 0 0-35.477 22.375c3.727-20.543 8.797-39.922 15.106-57.66zm-40.98 102.449a532.88 532.88 0 0 0-1.65 41.953c0 14.137.556 28.094 1.634 41.773-16.028-13.597-30.309-27.699-42.434-41.843 12.176-14.274 26.445-28.352 42.45-41.883zM20.491 312.293a13.901 13.901 0 0 1 6.524-8.5c6.683-3.86 15.265-1.563 19.125 5.125 3.859 6.684 1.562 15.266-5.125 19.125a13.9 13.9 0 0 1-10.625 1.398 13.922 13.922 0 0 1-8.5-6.523 13.936 13.936 0 0 1-1.399-10.625zm117.676 91.867c-46.492 3.895-80.75-7.043-94-29.996-4.102-7.101-6.25-15.305-6.438-24.45a33.862 33.862 0 0 0 13.286-4.355c16.234-9.37 21.816-30.207 12.445-46.445a33.92 33.92 0 0 0-6.625-8.195c3.71-6.25 7.883-12.516 12.48-18.77 16.258 18.57 35.887 36.867 58.18 54.121 3.777 27.688 9.793 53.809 17.856 77.375-2.407.274-4.809.52-7.184.715zm183.652 21.59C301.957 467.852 275.355 492 248.84 492s-53.117-24.148-72.98-66.25c-.989-2.094-1.95-4.23-2.895-6.387 24.426-4.82 50.027-12.672 75.855-23.238 25.922 10.613 51.54 18.465 75.88 23.27a264.412 264.412 0 0 1-2.88 6.355zm98.442-6.668c-3.86 6.688-12.442 8.984-19.125 5.125a13.895 13.895 0 0 1-6.52-8.5 13.894 13.894 0 0 1 1.399-10.621 13.887 13.887 0 0 1 8.5-6.523 13.892 13.892 0 0 1 10.62 1.398c6.688 3.855 8.985 12.437 5.126 19.121zm33.246-44.914c-4.102 7.105-10.133 13.074-17.965 17.809a33.742 33.742 0 0 0-10.406-9.336c-7.864-4.543-17.028-5.75-25.801-3.399-8.77 2.352-16.102 7.977-20.645 15.844a34.062 34.062 0 0 0-3.796 9.832c-7.301-.09-14.84-.563-22.59-1.422 8.074-23.582 14.093-49.723 17.87-77.43 22.09-17.105 41.716-35.37 58.118-54.136a265.413 265.413 0 0 1 4.191 5.836c26.614 38.308 34.278 73.449 21.024 96.402zm0 0" fill="#000000" opacity="1" data-original="#000000"></path><path d="M35.508 142.828a10.03 10.03 0 0 0 7.07-2.93 10.073 10.073 0 0 0 2.93-7.07c0-2.629-1.07-5.2-2.93-7.066a10.067 10.067 0 0 0-7.07-2.934c-2.63 0-5.211 1.07-7.07 2.934a10.07 10.07 0 0 0-2.93 7.066c0 2.64 1.07 5.211 2.93 7.07a10.03 10.03 0 0 0 7.07 2.93zm0 0" fill="#000000" opacity="1" data-original="#000000"></path></g></svg>