<svg xmlns="http://www.w3.org/2000/svg" version="1.1" xmlns:xlink="http://www.w3.org/1999/xlink" width="512" height="512" x="0" y="0" viewBox="0 0 24 24" style="enable-background:new 0 0 512 512" xml:space="preserve" class=""><g><linearGradient id="a" x1="12" x2="12" y1="3.25" y2="20.75" gradientUnits="userSpaceOnUse"><stop offset="0" stop-color="#3747d6"></stop><stop offset="1" stop-color="#9545ed"></stop></linearGradient><g fill="url(#a)"><path d="M6 3.25A2.75 2.75 0 0 0 3.25 6v2A2.75 2.75 0 0 0 6 10.75h2A2.75 2.75 0 0 0 10.75 8V6A2.75 2.75 0 0 0 8 3.25zM16 3.25A2.75 2.75 0 0 0 13.25 6v2A2.75 2.75 0 0 0 16 10.75h2A2.75 2.75 0 0 0 20.75 8V6A2.75 2.75 0 0 0 18 3.25zM6 13.25A2.75 2.75 0 0 0 3.25 16v2A2.75 2.75 0 0 0 6 20.75h2A2.75 2.75 0 0 0 10.75 18v-2A2.75 2.75 0 0 0 8 13.25zM16 13.25A2.75 2.75 0 0 0 13.25 16v2A2.75 2.75 0 0 0 16 20.75h2A2.75 2.75 0 0 0 20.75 18v-2A2.75 2.75 0 0 0 18 13.25z" fill="" opacity="1"></path></g></g></svg>