<svg xmlns="http://www.w3.org/2000/svg" version="1.1" xmlns:xlink="http://www.w3.org/1999/xlink" width="512" height="512" x="0" y="0" viewBox="0 0 512 512" style="enable-background:new 0 0 512 512" xml:space="preserve" class=""><g><linearGradient id="a" x1="0" x2="512" y1="258" y2="258" gradientTransform="matrix(1 0 0 -1 0 514)" gradientUnits="userSpaceOnUse"><stop offset="0" style="stop-color:#00F2FE" stop-color="#00f2fe"></stop><stop offset=".021" style="stop-color:#03EFFE" stop-color="#03effe"></stop><stop offset=".293" style="stop-color:#24D2FE" stop-color="#24d2fe"></stop><stop offset=".554" style="stop-color:#3CBDFE" stop-color="#3cbdfe"></stop><stop offset=".796" style="stop-color:#4AB0FE" stop-color="#4ab0fe"></stop><stop offset="1" style="stop-color:#4FACFE" stop-color="#4facfe"></stop></linearGradient><path d="M426 340c-26.583 0-50.387 12.124-66.174 31.131l-66.919-33.283c-9.889-4.916-21.895-.89-26.813 9.001-4.919 9.89-.889 21.895 9.001 26.813l67.022 33.333A85.917 85.917 0 0 0 340 426c0 47.421 38.58 86 86 86s86-38.579 86-86-38.58-86-86-86zm0 132c-25.364 0-46-20.636-46-46 0-6.29 1.269-12.288 3.565-17.754a20.253 20.253 0 0 0 2.424-4.922C393.906 389.407 408.875 380 426 380c25.364 0 46 20.636 46 46s-20.636 46-46 46zM202.071 292.298l-32.377-16.477A85.894 85.894 0 0 0 172 256c0-6.709-.772-13.241-2.233-19.511l190.241-95.401C375.796 159.97 399.52 172 426 172c47.42 0 86-38.579 86-86S473.42 0 426 0s-86 38.579-86 86c0 6.627.754 13.081 2.179 19.281l-190.339 95.45C136.052 181.954 112.396 170 86 170c-47.42 0-86 38.579-86 86s38.58 86 86 86c26.282 0 49.848-11.851 65.635-30.488l32.293 16.435a19.913 19.913 0 0 0 9.055 2.18c7.286 0 14.31-3.995 17.841-10.933 5.01-9.845 1.092-21.886-8.753-26.896zM426 40c25.364 0 46 20.636 46 46s-20.636 46-46 46-46-20.636-46-46 20.636-46 46-46zM86 302c-25.364 0-46-20.636-46-46s20.636-46 46-46 46 20.636 46 46-20.636 46-46 46z" style="fill:url(#a);" fill=""></path></g></svg>