<svg xmlns="http://www.w3.org/2000/svg" version="1.1" xmlns:xlink="http://www.w3.org/1999/xlink" width="512" height="512" x="0" y="0" viewBox="0 0 64 64" style="enable-background:new 0 0 512 512" xml:space="preserve" class=""><g><linearGradient id="a" x1="4" x2="60" y1="32" y2="32" gradientUnits="userSpaceOnUse"><stop offset="0" stop-color="#00c0ff"></stop><stop offset="1" stop-color="#5558ff"></stop></linearGradient><path fill="url(#a)" d="M32.024 33.668a7.04 7.04 0 0 0 7.031-7.032c-.33-9.306-13.733-9.304-14.062 0a7.04 7.04 0 0 0 7.03 7.032zm0-12.062c6.647.211 6.646 9.85 0 10.06-6.648-.211-6.646-9.85 0-10.06zm-10.578 18.12v2.621a.452.452 0 0 0 .44.45h20.265a.451.451 0 0 0 .45-.45v-2.621a4.057 4.057 0 0 0-2.778-3.855l-1.702-.57a1 1 0 0 1 .635-1.898l1.702.57a6.056 6.056 0 0 1 4.145 5.753v2.621a2.455 2.455 0 0 1-2.452 2.452H21.887a2.45 2.45 0 0 1-2.442-2.452v-2.621a6.057 6.057 0 0 1 4.146-5.753l1.7-.57a1 1 0 1 1 .636 1.898l-1.702.57a4.058 4.058 0 0 0-2.779 3.855zm7.718-25.824h5.72a2.004 2.004 0 0 0 2-2.001V6.183a2.004 2.004 0 0 0-2-2.002h-5.72a2.004 2.004 0 0 0-2 2.002V11.9a2.004 2.004 0 0 0 2 2.001zm0-7.72h5.72v5.719h-5.72zM55.183 27.34c-6.423.205-6.421 9.518 0 9.722 6.423-.204 6.422-9.519 0-9.722zm0 7.72a2.86 2.86 0 0 1 0-5.718 2.86 2.86 0 0 1 0 5.718zm-41.779.984a2.128 2.128 0 0 0 .094-2.083l-2.717-5.435a2.155 2.155 0 0 0-3.831 0l-2.718 5.435a2.155 2.155 0 0 0 1.915 3.1h5.435a2.13 2.13 0 0 0 1.822-1.017zm-7.257-.985a.14.14 0 0 1-.125-.203l2.718-5.435c.022-.083.22-.113.25 0l2.718 5.435c.046.058-.024.224-.126.203zm29.03 16.845a2.006 2.006 0 0 0-1.734-1.003h-2.838a2.005 2.005 0 0 0-1.733 1.001l-1.419 2.457a2.01 2.01 0 0 0 0 2.002l1.418 2.456a2.006 2.006 0 0 0 1.734 1.002h2.838a2.004 2.004 0 0 0 1.732-1l1.42-2.458a2.01 2.01 0 0 0 0-2.002zm-1.734 5.913h-2.837l-1.42-2.457 1.419-2.457h2.837l1.419 2.457zm5.401-46.699a1.007 1.007 0 0 1 .46-1.338l3.715-1.811a1 1 0 0 1 .877 1.799l-1.385.675a24.158 24.158 0 0 1 12.07 13.115 1.001 1.001 0 0 1-1.87.714 22.136 22.136 0 0 0-11.088-12.02l.831 1.703a1 1 0 0 1-1.798.877zM7.792 21.206a1 1 0 0 1 1.798-.878l.676 1.386A24.15 24.15 0 0 1 23.38 9.645a1 1 0 0 1 .713 1.87A22.137 22.137 0 0 0 12.075 22.6l1.703-.83a1.001 1.001 0 0 1 .877 1.798l-3.714 1.812a1.007 1.007 0 0 1-1.338-.461zm17.412 32.077a1.007 1.007 0 0 1-.46 1.339c-.197.053-4.052 2.088-4.153 1.913a1.006 1.006 0 0 1-.44-1.9l1.386-.676a24.158 24.158 0 0 1-12.07-13.115 1.001 1.001 0 0 1 1.87-.714 22.137 22.137 0 0 0 11.088 12.02l-.831-1.703a1 1 0 0 1 1.798-.878zm31.052-10.087a1 1 0 0 1-1.798.877l-.676-1.385a24.154 24.154 0 0 1-13.115 12.07 1 1 0 0 1-.714-1.87A22.14 22.14 0 0 0 51.973 41.8l-1.703.83a1.001 1.001 0 0 1-.878-1.799l3.715-1.811a1.007 1.007 0 0 1 1.338.46z" opacity="1" data-original="url(#a)" class=""></path></g></svg>