<svg xmlns="http://www.w3.org/2000/svg" version="1.1" xmlns:xlink="http://www.w3.org/1999/xlink" width="512" height="512" x="0" y="0" viewBox="0 0 512 512" style="enable-background:new 0 0 512 512" xml:space="preserve" class=""><g><linearGradient id="a" x1="41.997" x2="470.003" y1="258" y2="258" gradientTransform="matrix(1 0 0 -1 0 514)" gradientUnits="userSpaceOnUse"><stop offset="0" style="stop-color:#00F2FE" stop-color="#00f2fe"></stop><stop offset=".021" style="stop-color:#03EFFE" stop-color="#03effe"></stop><stop offset=".293" style="stop-color:#24D2FE" stop-color="#24d2fe"></stop><stop offset=".554" style="stop-color:#3CBDFE" stop-color="#3cbdfe"></stop><stop offset=".796" style="stop-color:#4AB0FE" stop-color="#4ab0fe"></stop><stop offset="1" style="stop-color:#4FACFE" stop-color="#4facfe"></stop></linearGradient><path d="M468.86 446.934c-2.246-10.815-12.833-17.765-23.648-15.517-10.815 2.245-17.762 12.833-15.517 23.648.878 4.231-.194 8.595-2.943 11.973-1.508 1.853-4.838 4.961-10.204 4.961H283.731l54.007-138.104a176.707 176.707 0 0 1 52.283 41.2c7.232 8.348 19.863 9.252 28.212 2.02 8.348-7.232 9.252-19.864 2.02-28.212a216.786 216.786 0 0 0-90.244-61.959C355.057 265.832 371 234.245 371 198.999c0-20.703-5.437-40.557-15.624-57.954L417 118.339V217c0 11.046 8.954 20 20 20s20-8.954 20-20V91c0-.197-.024-.389-.03-.585.01-.253.03-.505.03-.76V88.53a20 20 0 0 0-12.899-18.697L263.666 1.303a20 20 0 0 0-14.147-.021L67.953 69.626a20 20 0 0 0-12.954 18.718v1.125a20 20 0 0 0 13.131 18.784l88.7 32.435c-10.322 17.476-15.832 37.452-15.832 58.312 0 35.285 15.979 66.903 41.074 88.015-23.168 8.394-44.914 20.711-64.132 36.564-38.209 31.52-64.774 75.483-74.803 123.792-3.312 15.955.671 32.335 10.929 44.94C64.248 504.824 79.332 512 95.45 512h321.098c16.007 0 31.035-7.186 41.23-19.715 10.378-12.754 14.417-29.284 11.082-45.351zm-212.861-13.849-44.34-113.384a175.326 175.326 0 0 1 44.34-5.701c15.128 0 30.021 1.933 44.369 5.627l-44.369 113.458zm.534-391.703 124.893 47.436-56.265 20.732c-19.656-9.129-50.205-10.771-68.941-10.813-18.741-.063-49.314 1.452-68.976 10.481l-56.266-20.575 125.555-47.261zM180.999 199c0-20.095 7.839-38.933 22.068-53.112 3.863-2.359 21.626-7.152 52.4-7.152h.706c31.23.074 49.189 5.029 53.041 7.43 14.047 14.145 21.785 32.885 21.785 52.833 0 41.355-33.645 75-75 75s-75-33.644-75-74.999zM85.093 467.065c-1.544-1.898-3.96-5.924-2.79-11.563 11.089-53.417 45.963-97.285 92.045-121.379L228.267 472H95.45c-5.518 0-8.858-3.092-10.357-4.935z" style="fill:url(#a);" fill=""></path></g></svg>