<svg xmlns="http://www.w3.org/2000/svg" xmlns:xlink="http://www.w3.org/1999/xlink" width="623" zoomAndPan="magnify" viewBox="0 0 467.25 248.999984" height="332" preserveAspectRatio="xMidYMid meet" version="1.0"><defs><g/><clipPath id="26de03726a"><path d="M 0 9.710938 L 431.308594 9.710938 L 431.308594 239.59375 L 0 239.59375 Z M 0 9.710938 " clip-rule="nonzero"/></clipPath></defs><g clip-path="url(#26de03726a)"><path fill="#e62e1f" d="M 419.785156 9.886719 L 88.542969 9.886719 C 85.015625 9.886719 81.613281 11.523438 79.472656 14.421875 L 2.265625 117.699219 C -0.753906 121.730469 -0.753906 127.269531 2.265625 131.300781 L 79.472656 234.578125 C 81.613281 237.476562 85.015625 239.113281 88.542969 239.113281 L 419.785156 239.113281 C 426.082031 239.113281 431.121094 234.074219 431.121094 227.777344 L 431.121094 21.222656 C 431.121094 14.925781 426.082031 9.886719 419.785156 9.886719 Z M 53.277344 139.992188 C 44.710938 139.992188 37.785156 133.0625 37.785156 124.5 C 37.785156 115.933594 44.710938 109.007812 53.277344 109.007812 C 61.839844 109.007812 68.769531 115.933594 68.769531 124.5 C 68.769531 133.0625 61.839844 139.992188 53.277344 139.992188 Z M 53.277344 139.992188 " fill-opacity="1" fill-rule="nonzero"/></g><g fill="#ffffff" fill-opacity="1"><g transform="translate(96.603329, 153.328702)"><g><path d="M 7.015625 0 L 7.015625 -54.015625 L 28.703125 -54.015625 C 34.296875 -54.015625 38.515625 -52.726562 41.359375 -50.15625 C 44.203125 -47.582031 45.625 -44.03125 45.625 -39.5 C 45.625 -36.21875 44.789062 -33.53125 43.125 -31.4375 C 41.46875 -29.34375 38.988281 -27.742188 35.6875 -26.640625 L 35.6875 -25.859375 C 37.394531 -25.117188 38.769531 -24.019531 39.8125 -22.5625 C 40.863281 -21.113281 41.851562 -18.960938 42.78125 -16.109375 L 48.1875 0 L 37.203125 0 L 31.921875 -16.140625 C 31.378906 -17.765625 30.769531 -19.023438 30.09375 -19.921875 C 29.414062 -20.828125 28.550781 -21.484375 27.5 -21.890625 C 26.457031 -22.296875 25.097656 -22.5 23.421875 -22.5 L 17.703125 -22.5 L 17.703125 0 Z M 27.421875 -30.96875 C 32.585938 -30.96875 35.171875 -33.378906 35.171875 -38.203125 C 35.171875 -43.109375 32.585938 -45.5625 27.421875 -45.5625 L 17.703125 -45.5625 L 17.703125 -30.96875 Z M 27.421875 -30.96875 "/></g></g></g><g fill="#ffffff" fill-opacity="1"><g transform="translate(147.107378, 153.328702)"><g><path d="M 19.0625 0.78125 C 16.28125 0.78125 13.726562 0.453125 11.40625 -0.203125 C 9.09375 -0.859375 7.117188 -1.757812 5.484375 -2.90625 C 3.847656 -4.050781 2.632812 -5.359375 1.84375 -6.828125 L 7.53125 -12.96875 L 8.3125 -12.96875 C 9.664062 -11.144531 11.265625 -9.773438 13.109375 -8.859375 C 14.960938 -7.953125 16.972656 -7.5 19.140625 -7.5 C 21.128906 -7.5 22.628906 -7.851562 23.640625 -8.5625 C 24.648438 -9.28125 25.15625 -10.304688 25.15625 -11.640625 C 25.15625 -12.671875 24.789062 -13.535156 24.0625 -14.234375 C 23.34375 -14.941406 22.171875 -15.492188 20.546875 -15.890625 L 15.15625 -17.1875 C 11.113281 -18.144531 8.160156 -19.613281 6.296875 -21.59375 C 4.441406 -23.582031 3.515625 -26.101562 3.515625 -29.15625 C 3.515625 -31.6875 4.160156 -33.890625 5.453125 -35.765625 C 6.742188 -37.640625 8.566406 -39.066406 10.921875 -40.046875 C 13.273438 -41.035156 16.015625 -41.53125 19.140625 -41.53125 C 22.804688 -41.53125 25.847656 -41 28.265625 -39.9375 C 30.679688 -38.882812 32.566406 -37.46875 33.921875 -35.6875 L 28.453125 -29.78125 L 27.71875 -29.78125 C 26.582031 -31.0625 25.304688 -31.992188 23.890625 -32.578125 C 22.472656 -33.171875 20.890625 -33.46875 19.140625 -33.46875 C 15.097656 -33.46875 13.078125 -32.210938 13.078125 -29.703125 C 13.078125 -28.648438 13.453125 -27.789062 14.203125 -27.125 C 14.953125 -26.457031 16.273438 -25.914062 18.171875 -25.5 L 23.203125 -24.390625 C 27.335938 -23.503906 30.359375 -22.082031 32.265625 -20.125 C 34.179688 -18.164062 35.140625 -15.535156 35.140625 -12.234375 C 35.140625 -9.640625 34.5 -7.359375 33.21875 -5.390625 C 31.9375 -3.421875 30.085938 -1.898438 27.671875 -0.828125 C 25.253906 0.242188 22.382812 0.78125 19.0625 0.78125 Z M 19.0625 0.78125 "/></g></g></g><g fill="#ffffff" fill-opacity="1"><g transform="translate(184.680619, 153.328702)"><g><path d="M 10.421875 0.328125 C 9.117188 0.328125 7.96875 0.0664062 6.96875 -0.453125 C 5.96875 -0.984375 5.203125 -1.71875 4.671875 -2.65625 C 4.140625 -3.59375 3.875 -4.65625 3.875 -5.84375 C 3.875 -7.019531 4.140625 -8.078125 4.671875 -9.015625 C 5.203125 -9.953125 5.96875 -10.691406 6.96875 -11.234375 C 7.96875 -11.773438 9.117188 -12.046875 10.421875 -12.046875 C 11.753906 -12.046875 12.914062 -11.78125 13.90625 -11.25 C 14.90625 -10.71875 15.671875 -9.984375 16.203125 -9.046875 C 16.734375 -8.117188 17 -7.0625 17 -5.875 C 17 -4.070312 16.398438 -2.585938 15.203125 -1.421875 C 14.003906 -0.253906 12.410156 0.328125 10.421875 0.328125 Z M 10.421875 0.328125 "/></g></g></g><g fill="#ffffff" fill-opacity="1"><g transform="translate(205.554644, 153.328702)"><g><path d="M 22.015625 0.78125 C 16.234375 0.78125 11.640625 -0.441406 8.234375 -2.890625 C 4.835938 -5.347656 2.6875 -8.816406 1.78125 -13.296875 L 9.859375 -17.078125 L 10.71875 -16.921875 C 11.625 -13.941406 12.921875 -11.765625 14.609375 -10.390625 C 16.296875 -9.023438 18.644531 -8.34375 21.65625 -8.34375 C 24.5625 -8.34375 26.773438 -9.019531 28.296875 -10.375 C 29.828125 -11.738281 30.59375 -13.710938 30.59375 -16.296875 C 30.59375 -18.828125 29.832031 -20.769531 28.3125 -22.125 C 26.800781 -23.488281 24.582031 -24.171875 21.65625 -24.171875 L 13.515625 -24.171875 L 13.515625 -32.484375 L 20.625 -32.484375 C 23.03125 -32.484375 24.945312 -33.082031 26.375 -34.28125 C 27.8125 -35.488281 28.53125 -37.21875 28.53125 -39.46875 C 28.53125 -41.675781 27.859375 -43.34375 26.515625 -44.46875 C 25.171875 -45.59375 23.316406 -46.15625 20.953125 -46.15625 C 18.535156 -46.15625 16.394531 -45.585938 14.53125 -44.453125 C 12.675781 -43.316406 11.179688 -41.789062 10.046875 -39.875 L 9.203125 -39.71875 L 3.578125 -46.265625 C 5.472656 -48.828125 7.910156 -50.890625 10.890625 -52.453125 C 13.878906 -54.015625 17.429688 -54.796875 21.546875 -54.796875 C 27.210938 -54.796875 31.535156 -53.613281 34.515625 -51.25 C 37.492188 -48.882812 38.984375 -45.554688 38.984375 -41.265625 C 38.984375 -38.679688 38.378906 -36.472656 37.171875 -34.640625 C 35.960938 -32.804688 34.226562 -31.222656 31.96875 -29.890625 L 31.96875 -29.109375 C 38.195312 -26.921875 41.3125 -22.488281 41.3125 -15.8125 C 41.3125 -12.46875 40.59375 -9.550781 39.15625 -7.0625 C 37.726562 -4.570312 35.570312 -2.640625 32.6875 -1.265625 C 29.8125 0.0976562 26.253906 0.78125 22.015625 0.78125 Z M 22.015625 0.78125 "/></g></g></g><g fill="#ffffff" fill-opacity="1"><g transform="translate(250.258296, 153.328702)"><g><path d="M 22.578125 0.78125 C 17.472656 0.78125 13.457031 -0.242188 10.53125 -2.296875 C 7.601562 -4.359375 5.644531 -7.238281 4.65625 -10.9375 L 12.78125 -14.59375 L 13.640625 -14.40625 C 15.035156 -10.289062 17.988281 -8.234375 22.5 -8.234375 C 26.019531 -8.234375 28.695312 -9.691406 30.53125 -12.609375 C 32.375 -15.535156 33.296875 -19.914062 33.296875 -25.75 L 32.546875 -26.015625 C 31.316406 -23.671875 29.707031 -21.894531 27.71875 -20.6875 C 25.738281 -19.476562 23.175781 -18.875 20.03125 -18.875 C 16.800781 -18.875 13.957031 -19.585938 11.5 -21.015625 C 9.050781 -22.453125 7.148438 -24.492188 5.796875 -27.140625 C 4.441406 -29.785156 3.765625 -32.894531 3.765625 -36.46875 C 3.765625 -40.1875 4.550781 -43.425781 6.125 -46.1875 C 7.707031 -48.945312 9.953125 -51.070312 12.859375 -52.5625 C 15.765625 -54.050781 19.148438 -54.796875 23.015625 -54.796875 C 29.691406 -54.796875 34.90625 -52.679688 38.65625 -48.453125 C 42.414062 -44.234375 44.296875 -37.429688 44.296875 -28.046875 C 44.296875 -21.585938 43.425781 -16.210938 41.6875 -11.921875 C 39.957031 -7.640625 37.472656 -4.453125 34.234375 -2.359375 C 30.992188 -0.265625 27.109375 0.78125 22.578125 0.78125 Z M 23.3125 -27.640625 C 26.070312 -27.640625 28.257812 -28.453125 29.875 -30.078125 C 31.488281 -31.703125 32.296875 -33.894531 32.296875 -36.65625 C 32.296875 -39.4375 31.5 -41.640625 29.90625 -43.265625 C 28.320312 -44.890625 26.125 -45.703125 23.3125 -45.703125 C 20.550781 -45.703125 18.394531 -44.914062 16.84375 -43.34375 C 15.289062 -41.769531 14.515625 -39.539062 14.515625 -36.65625 C 14.515625 -33.800781 15.289062 -31.582031 16.84375 -30 C 18.394531 -28.425781 20.550781 -27.640625 23.3125 -27.640625 Z M 23.3125 -27.640625 "/></g></g></g><g fill="#ffffff" fill-opacity="1"><g transform="translate(299.099819, 153.328702)"><g><path d="M 22.578125 0.78125 C 17.472656 0.78125 13.457031 -0.242188 10.53125 -2.296875 C 7.601562 -4.359375 5.644531 -7.238281 4.65625 -10.9375 L 12.78125 -14.59375 L 13.640625 -14.40625 C 15.035156 -10.289062 17.988281 -8.234375 22.5 -8.234375 C 26.019531 -8.234375 28.695312 -9.691406 30.53125 -12.609375 C 32.375 -15.535156 33.296875 -19.914062 33.296875 -25.75 L 32.546875 -26.015625 C 31.316406 -23.671875 29.707031 -21.894531 27.71875 -20.6875 C 25.738281 -19.476562 23.175781 -18.875 20.03125 -18.875 C 16.800781 -18.875 13.957031 -19.585938 11.5 -21.015625 C 9.050781 -22.453125 7.148438 -24.492188 5.796875 -27.140625 C 4.441406 -29.785156 3.765625 -32.894531 3.765625 -36.46875 C 3.765625 -40.1875 4.550781 -43.425781 6.125 -46.1875 C 7.707031 -48.945312 9.953125 -51.070312 12.859375 -52.5625 C 15.765625 -54.050781 19.148438 -54.796875 23.015625 -54.796875 C 29.691406 -54.796875 34.90625 -52.679688 38.65625 -48.453125 C 42.414062 -44.234375 44.296875 -37.429688 44.296875 -28.046875 C 44.296875 -21.585938 43.425781 -16.210938 41.6875 -11.921875 C 39.957031 -7.640625 37.472656 -4.453125 34.234375 -2.359375 C 30.992188 -0.265625 27.109375 0.78125 22.578125 0.78125 Z M 23.3125 -27.640625 C 26.070312 -27.640625 28.257812 -28.453125 29.875 -30.078125 C 31.488281 -31.703125 32.296875 -33.894531 32.296875 -36.65625 C 32.296875 -39.4375 31.5 -41.640625 29.90625 -43.265625 C 28.320312 -44.890625 26.125 -45.703125 23.3125 -45.703125 C 20.550781 -45.703125 18.394531 -44.914062 16.84375 -43.34375 C 15.289062 -41.769531 14.515625 -39.539062 14.515625 -36.65625 C 14.515625 -33.800781 15.289062 -31.582031 16.84375 -30 C 18.394531 -28.425781 20.550781 -27.640625 23.3125 -27.640625 Z M 23.3125 -27.640625 "/></g></g></g><g fill="#ffffff" fill-opacity="1"><g transform="translate(347.941342, 153.328702)"><g><path d="M 9.9375 7.71875 L 0.21875 7.71875 L 20.359375 -57.125 L 30.109375 -57.125 Z M 9.9375 7.71875 "/></g></g></g><g fill="#ffffff" fill-opacity="1"><g transform="translate(379.677235, 153.328702)"><g><path d="M 25.859375 -21.71875 L 3.21875 -21.71875 L 3.21875 -30.734375 L 25.859375 -30.734375 Z M 25.859375 -21.71875 "/></g></g></g></svg>