<svg xmlns="http://www.w3.org/2000/svg" version="1.1" xmlns:xlink="http://www.w3.org/1999/xlink" width="512" height="512" x="0" y="0" viewBox="0 0 152 152" style="enable-background:new 0 0 512 512" xml:space="preserve" class=""><g><path d="M141.1 35.6c-4.9 2.1-10.1 3.6-15.3 4.2 5.6-3.3 9.8-8.6 11.8-14.8-5.3 3-11 5.3-16.9 6.5-10.1-10.7-27-11.4-37.7-1.3-5.4 5-8.5 12.2-8.5 19.6 0 2 .1 4.1.7 6.1C53.5 54.8 33.5 44.6 19.9 28c-7.1 12.2-3.6 27.9 8.2 35.7-4.2-.1-8.3-1.2-12-3.3v.3c0 12.7 9 23.7 21.4 26.2-2.2.7-4.6.9-7 .9-1.7 0-3.4-.1-5-.4C29 98.2 39 105.6 50.5 106c-9.4 7.4-21 11.4-33.1 11.4-2.1 0-4.2-.1-6.3-.4 12.2 7.9 26.4 12 41 12 49.1 0 75.9-40.7 75.9-75.9 0-1.2 0-2.4-.1-3.4 5.1-4 9.6-8.8 13.2-14.1z" fill="#000000" opacity="1" data-original="#000000" class=""></path></g></svg>