<svg xmlns="http://www.w3.org/2000/svg" version="1.1" xmlns:xlink="http://www.w3.org/1999/xlink" width="512" height="512" x="0" y="0" viewBox="0 0 512 512" style="enable-background:new 0 0 512 512" xml:space="preserve" class=""><g><linearGradient id="a" x1="97.288" x2="414.712" y1="256" y2="256" gradientUnits="userSpaceOnUse"><stop offset="0" stop-color="#4d62ff"></stop><stop offset=".193" stop-color="#466aff"></stop><stop offset=".492" stop-color="#3480ff"></stop><stop offset=".858" stop-color="#17a3ff"></stop><stop offset="1" stop-color="#0ab3ff"></stop></linearGradient><path fill="url(#a)" d="M158.63 445.71c0 4.48 3.63 8.11 8.14 8.11h219.29v7.94H166.74c-4.25 0-8.28-1.73-11.28-4.76-3.03-3-4.76-7.03-4.76-11.28 0-4.28 1.73-8.31 4.76-11.31 3-3.03 7.03-4.76 11.28-4.76h219.32v7.94H166.77a8.092 8.092 0 0 0-8.14 8.12zm227.42-148.65H290.5a44.793 44.793 0 0 1-13.24 7.91h108.79zm-219.31 0c-4.25 0-8.28 1.7-11.28 4.73-3.03 3-4.76 7.03-4.76 11.31s1.73 8.28 4.76 11.31c3 3 7.03 4.73 11.28 4.73h219.32v-7.94H166.77c-4.51 0-8.14-3.63-8.14-8.11 0-4.51 3.63-8.14 8.14-8.14h67.97a44.92 44.92 0 0 1-13.24-7.91h-54.76zm227.82-50.26h-88.19c-.08.88-.11 1.79-.11 2.72v13.32c0 6.38-1.33 12.44-3.74 17.94h92.04c9.38 0 17.01-7.6 17.01-17.01 0-9.37-7.63-16.97-17.01-16.97zm17.01 115.6c0-9.38-7.63-17.01-17.01-17.01H166.74c-8.84 0-16.92-3.63-22.79-9.5s-9.5-13.95-9.5-22.79c0-8.87 3.63-16.95 9.5-22.82 5.87-5.84 13.95-9.5 22.79-9.5h42.75a44.594 44.594 0 0 1-3.74-17.94v-13.32a30 30 0 0 0-.11-2.72h-38.89c-18.23 0-34.81 7.46-46.83 19.45-12.02 12.02-19.47 28.6-19.47 46.86 0 18.23 7.46 34.81 19.47 46.83 12.02 12.02 28.6 19.47 46.83 19.47-18.23 0-34.81 7.46-46.83 19.45-12.02 12.02-19.47 28.6-19.47 46.86 0 18.23 7.46 34.81 19.47 46.83 12.02 12.02 28.6 19.47 46.83 19.47h227.82c9.38 0 17.01-7.63 17.01-17.01S403.94 478 394.56 478H166.74c-8.84 0-16.92-3.63-22.79-9.5s-9.5-13.95-9.5-22.79c0-8.87 3.63-16.95 9.5-22.82s13.95-9.5 22.79-9.5h227.82c9.38 0 17.01-7.6 17.01-17.01 0-9.38-7.63-16.98-17.01-16.98 9.38.01 17.01-7.62 17.01-17zM249.76 176.96v56.07h12.47v-56.07zm1.08 114.74h10.32c11.71 0 21.86-7.09 26.36-17.15h-63.04c4.53 10.07 14.65 17.15 26.36 17.15zm-28.86-33.39h68.03v-9.01h-68.03zm-11.33-39.54c3.8 4.45 6.63 9.18 8.5 14.26h14.34v-56.07h-3.77c-5.53 0-10.54-2.24-14.17-5.87s-5.9-8.65-5.9-14.17c0-5.53 2.27-10.52 5.9-14.15s8.65-5.9 14.17-5.9c5.5 0 10.52 2.27 14.15 5.9s5.9 8.62 5.9 14.15v3.8h12.47v-3.8c0-5.53 2.27-10.52 5.9-14.15s8.65-5.9 14.15-5.9c5.53 0 10.54 2.27 14.17 5.9s5.9 8.62 5.9 14.15-2.27 10.54-5.9 14.17-8.65 5.87-14.17 5.87h-3.77v56.07h14.34c1.87-5.07 4.71-9.81 8.5-14.26 14.77-17.29 29.34-28.6 29.34-60.07 0-41.24-33.45-74.69-74.69-74.69s-74.69 33.45-74.69 74.69c-.01 31.47 14.59 42.78 29.33 60.07zm19.07-65.65c-1.05 0-1.98.45-2.69 1.13-.68.68-1.11 1.64-1.11 2.66 0 1.05.43 1.98 1.11 2.66.71.71 1.64 1.13 2.69 1.13h3.77v-3.8c0-1.02-.43-1.98-1.11-2.66-.7-.67-1.64-1.12-2.66-1.12zm55.25 6.46c.68-.68 1.11-1.62 1.11-2.66 0-1.02-.43-1.98-1.11-2.66-.71-.68-1.64-1.13-2.69-1.13-1.02 0-1.96.45-2.66 1.13-.68.68-1.11 1.64-1.11 2.66v3.8h3.77c1.05-.01 1.98-.43 2.69-1.14zM256 54.81c4.48 0 8.14-3.63 8.14-8.14V8.12c0-4.48-3.66-8.14-8.14-8.14s-8.14 3.66-8.14 8.14v38.55c0 4.51 3.66 8.14 8.14 8.14zm150.58 95.76h-38.55c-4.51 0-8.14 3.66-8.14 8.14s3.63 8.14 8.14 8.14h38.55c4.48 0 8.14-3.66 8.14-8.14-.01-4.49-3.66-8.14-8.14-8.14zm-65.63-65.34 27.27-27.24c3.17-3.17 3.17-8.33 0-11.51s-8.33-3.17-11.51 0l-27.27 27.27c-3.15 3.17-3.15 8.31 0 11.48 3.18 3.17 8.34 3.17 11.51 0zm-169.9 0c3.17 3.17 8.33 3.17 11.51 0 3.15-3.17 3.15-8.31 0-11.48l-27.27-27.27c-3.17-3.17-8.33-3.17-11.51 0s-3.17 8.33 0 11.51zm-27.08 81.61c4.51 0 8.14-3.66 8.14-8.14s-3.63-8.14-8.14-8.14h-38.55c-4.48 0-8.14 3.66-8.14 8.14s3.66 8.14 8.14 8.14z" opacity="1" data-original="url(#a)" class=""></path></g></svg>