<svg xmlns="http://www.w3.org/2000/svg" version="1.1" xmlns:xlink="http://www.w3.org/1999/xlink" width="512" height="512" x="0" y="0" viewBox="0 0 48 48" style="enable-background:new 0 0 512 512" xml:space="preserve" class=""><g><g data-name="User Experience"><path d="M39 33.18V5a5 5 0 0 0-5-5H14a5 5 0 0 0-5 5v38a5 5 0 0 0 5 5c12.89 0 12.34.15 12.76-.35.9-1.06-.23-1.51-6.15-6.57a.89.89 0 0 1 .19-1.48c.45-.23.28-.19 4.88 1.35A1 1 0 0 0 27 40V27a1 1 0 0 1 2 0v11a1 1 0 0 0 2 0v-4a1 1 0 0 1 2 0v4a1 1 0 0 0 2 0v-3a1 1 0 0 1 2 0v3a1 1 0 0 0 2 0v-2a1 1 0 0 1 2 0v11a1 1 0 0 0 2 0V36a3 3 0 0 0-4-2.82zM11 5a3 3 0 0 1 3-3h20a3 3 0 0 1 3 3v1H11zm12.29 41H14a3 3 0 0 1-3-3v-1h7.79c.32.49.13.27 4.5 4zm11.24-13.6A3 3 0 0 0 31 31.18V27a3 3 0 0 0-6 0h-9a1 1 0 0 0 0 2h9v9.61l-2.88-1A2.89 2.89 0 0 0 18.34 40H11V8h26v24.18a2.89 2.89 0 0 0-2.47.22z" fill="#000000" opacity="1" data-original="#000000" class=""></path><path d="M21 12v5a2 2 0 0 1-4 0v-5a1 1 0 0 0-2 0v5a4 4 0 0 0 8 0v-5a1 1 0 0 0-2 0zM31.2 11.4 29 14.33l-2.2-2.93a1 1 0 0 0-1.6 1.2l2.55 3.4-2.55 3.4a1 1 0 0 0 1.6 1.2l2.2-2.93 2.2 2.93a1 1 0 0 0 1.6-1.2L30.25 16l2.55-3.4a1 1 0 0 0-1.6-1.2zM22 23h-6a1 1 0 0 0 0 2h6a1 1 0 0 0 0-2zM16 33h4a1 1 0 0 0 0-2h-4a1 1 0 0 0 0 2z" fill="#000000" opacity="1" data-original="#000000" class=""></path></g></g></svg>