<svg xmlns="http://www.w3.org/2000/svg" version="1.1" xmlns:xlink="http://www.w3.org/1999/xlink" width="512" height="512" x="0" y="0" viewBox="0 0 64 64" style="enable-background:new 0 0 512 512" xml:space="preserve" class=""><g><linearGradient id="a" x1="4" x2="60" y1="32" y2="32" gradientUnits="userSpaceOnUse"><stop offset="0" stop-color="#00c0ff"></stop><stop offset="1" stop-color="#5558ff"></stop></linearGradient><path fill="url(#a)" d="M50.742 34.771a1 1 0 0 1-1.556 1.254l-2.25-2.792v12.165a1 1 0 0 1-2 0V33.233l-2.25 2.792a1 1 0 1 1-1.557-1.254l4.028-5a1.034 1.034 0 0 1 1.557 0zM33.001 50.136a1 1 0 0 1-1.002.998l-24.491-.038A3.53 3.53 0 0 1 4 47.564l.105-25.22a3.53 3.53 0 0 1 2.236-3.252v-4.58a1 1 0 0 1 1-1h29.49l.424-.43a3.52 3.52 0 0 1 2.505-1.045h9.641a3.517 3.517 0 0 1 3.517 3.509l.015 4.45a1 1 0 0 1-2 .008l-.015-4.455a1.515 1.515 0 0 0-1.517-1.512h-9.641a1.531 1.531 0 0 0-1.087.456l-5.31 5.362a3.53 3.53 0 0 1-2.505 1.046L7.63 20.84a1.529 1.529 0 0 0-1.523 1.514L6 47.574a1.513 1.513 0 0 0 1.508 1.522l24.493.038a1 1 0 0 1 .999 1.002zM8.342 18.84l22.52.06a1.52 1.52 0 0 0 1.078-.45l2.912-2.94H8.342zM60 37.898a14.064 14.064 0 1 1-14.064-14.064A14.08 14.08 0 0 1 60 37.898zm-2 0a12.064 12.064 0 1 0-12.064 12.065A12.078 12.078 0 0 0 58 37.898z" opacity="1" data-original="url(#a)"></path></g></svg>