<svg xmlns="http://www.w3.org/2000/svg" version="1.1" xmlns:xlink="http://www.w3.org/1999/xlink" width="512" height="512" x="0" y="0" viewBox="0 0 512 512" style="enable-background:new 0 0 512 512" xml:space="preserve" class=""><g><linearGradient id="a" x1="258.472" x2="255.402" y1="522.525" y2="4.735" gradientTransform="matrix(1 0 0 -1 0 513.57)" gradientUnits="userSpaceOnUse"><stop offset="0" stop-color="#0fc8ff"></stop><stop offset="1" stop-color="#4760ff"></stop></linearGradient><path fill="url(#a)" d="M55.8 507.2c-14.9 0-28.1-5.6-39.1-16.7S0 466.3 0 451.4v-87c0-18.1 14.6-32.7 32.7-32.7s32.7 14.6 32.7 32.7v77.4h381.1v-77.4c0-18.1 14.6-32.7 32.7-32.7s32.7 14.6 32.7 32.7v87c0 14.9-5.6 28.1-16.7 39.1s-24.2 16.7-39.1 16.7zm167.5-150.5V117.4L163.6 177c-12.8 12.8-33.5 12.8-46.3 0l-.4-.4c-12.8-12.8-12.8-33.5 0-46.3l116-115.9c12.8-12.8 33.5-12.8 46.3 0l115.9 115.9c12.8 12.8 12.8 33.5 0 46.3l-.4.4c-12.8 12.8-33.5 12.8-46.3 0l-59.6-59.6v239.3c0 18.1-14.6 32.7-32.7 32.7-18.2 0-32.8-14.6-32.8-32.7z" opacity="1" data-original="url(#a)" class=""></path></g></svg>