<svg xmlns="http://www.w3.org/2000/svg" version="1.1" xmlns:xlink="http://www.w3.org/1999/xlink" width="512" height="512" x="0" y="0" viewBox="0 0 24 24" style="enable-background:new 0 0 512 512" xml:space="preserve" class="hovered-paths"><g><linearGradient id="a" x1="12" x2="12" y1="1" y2="23" gradientUnits="userSpaceOnUse"><stop offset="0" stop-color="#00c0ff"></stop><stop offset="1" stop-color="#4071ff"></stop></linearGradient><path fill="url(#a)" d="M12 21H5a1 1 0 0 1-1-1V4a1 1 0 0 1 1-1h6v2a3 3 0 0 0 3 3h2v5a1 1 0 0 0 2 0V6.82a3 3 0 0 0-.87-2.1l-2.8-2.84A3 3 0 0 0 12.2 1H5a3 3 0 0 0-3 3v16a3 3 0 0 0 3 3h7a1 1 0 0 0 0-2zm3.59-15H14a1 1 0 0 1-1-1V3.38zM22 19.08a1 1 0 0 1-.3.7l-2 1.94a1 1 0 0 1-1.09.2A1 1 0 0 1 18 21v-1h-3a1 1 0 0 1 0-2h3v-1a1 1 0 0 1 1.72-.7l2 2.07a1 1 0 0 1 .28.71z" opacity="1" data-original="url(#a)" class="hovered-path"></path></g></svg>