<svg xmlns="http://www.w3.org/2000/svg" version="1.1" xmlns:xlink="http://www.w3.org/1999/xlink" width="512" height="512" x="0" y="0" viewBox="0 0 64 64" style="enable-background:new 0 0 512 512" xml:space="preserve" class=""><g><path d="M56.16 35.317a1 1 0 0 0-1 1v8.449a1 1 0 0 1-1 1H7a1 1 0 0 1-1-1v-30.1a1 1 0 0 1 1-1h20.93a1 1 0 0 0 0-2H7a3.003 3.003 0 0 0-3 3v30.1a3.003 3.003 0 0 0 3 3h19.382v3.063a9.53 9.53 0 0 1-.31 2.384c-10.7.64-14.566 3.429-14.744 3.563a1 1 0 0 0 1.194 1.604c.045-.033 4.696-3.302 18.057-3.302 14.293.07 17.384 3.27 18.65 3.498a1.007 1.007 0 0 0 .601-1.8c-.178-.134-4.044-2.923-14.744-3.563a23.655 23.655 0 0 1-.31-5.447H54.16a3.003 3.003 0 0 0 3-3v-8.45a1 1 0 0 0-1-1Zm-28.02 17.8a11.478 11.478 0 0 0 .242-2.288v-3.063h4.394a28.838 28.838 0 0 0 .242 5.35 79.068 79.068 0 0 0-4.878 0Z" fill="#000000" opacity="1" data-original="#000000" class=""></path><path d="M58.03 18.24a.146.146 0 0 1-.13-.093c-.328-1.744-1.197-2.93-1.666-4.246a2.144 2.144 0 0 0-.128-2.91l-1.68-1.68a2.14 2.14 0 0 0-2.91-.127 23.871 23.871 0 0 0-4.244-1.666.15.15 0 0 1-.095-.135 2.145 2.145 0 0 0-2.148-1.966h-2.375a2.143 2.143 0 0 0-2.143 1.932c0 .07-.035.154-.099.168a14.222 14.222 0 0 0-4.084 1.69.14.14 0 0 1-.161-.024 2.145 2.145 0 0 0-2.91.128l-1.679 1.68a2.145 2.145 0 0 0-.128 2.91c-.466 1.31-1.341 2.512-1.667 4.246a.146.146 0 0 1-.133.094 2.144 2.144 0 0 0-1.965 2.147v2.375a2.144 2.144 0 0 0 1.97 2.148.143.143 0 0 1 .128.094c.33 1.746 1.202 2.936 1.667 4.245a2.144 2.144 0 0 0 .128 2.91l1.68 1.681a2.145 2.145 0 0 0 2.909.126.144.144 0 0 1 .161-.023 14.178 14.178 0 0 0 4.086 1.69c.062.012.097.101.098.17a2.142 2.142 0 0 0 2.142 1.93h2.375a2.145 2.145 0 0 0 2.148-1.97.144.144 0 0 1 .095-.13 23.878 23.878 0 0 0 4.244-1.668 2.141 2.141 0 0 0 2.91-.126l1.68-1.68a2.145 2.145 0 0 0 .127-2.91c.468-1.311 1.342-2.51 1.667-4.246a.145.145 0 0 1 .134-.093A2.144 2.144 0 0 0 60 22.763v-2.375a2.144 2.144 0 0 0-1.97-2.147ZM58 22.764a.155.155 0 0 1-.146.155 2.138 2.138 0 0 0-1.899 1.62 12.141 12.141 0 0 1-1.451 3.508 2.137 2.137 0 0 0 .197 2.49.154.154 0 0 1-.009.21l-1.68 1.68a.157.157 0 0 1-.21.008 2.14 2.14 0 0 0-2.489-.197 12.172 12.172 0 0 1-3.507 1.452 2.137 2.137 0 0 0-1.621 1.902.155.155 0 0 1-.156.143h-2.375a.168.168 0 0 1-.159-.184 2.133 2.133 0 0 0-1.614-1.861 12.16 12.16 0 0 1-3.51-1.452 2.142 2.142 0 0 0-2.49.198.154.154 0 0 1-.21-.009l-1.679-1.68a.154.154 0 0 1-.009-.21 2.137 2.137 0 0 0 .197-2.49 12.161 12.161 0 0 1-1.452-3.508 2.134 2.134 0 0 0-1.902-1.62.155.155 0 0 1-.141-.155v-2.375a.155.155 0 0 1 .145-.155 2.135 2.135 0 0 0 1.898-1.618 12.179 12.179 0 0 1 1.452-3.51 2.136 2.136 0 0 0-.197-2.49.154.154 0 0 1 .01-.21l1.679-1.68a.154.154 0 0 1 .209-.01 2.136 2.136 0 0 0 2.49.198 12.2 12.2 0 0 1 3.51-1.452A2.133 2.133 0 0 0 42.495 7.6a.167.167 0 0 1 .16-.183h2.374a.155.155 0 0 1 .156.147 2.138 2.138 0 0 0 1.619 1.898 12.177 12.177 0 0 1 3.508 1.45 2.134 2.134 0 0 0 2.49-.196.155.155 0 0 1 .21.009l1.68 1.68a.154.154 0 0 1 .01.21 2.134 2.134 0 0 0-.198 2.489 12.176 12.176 0 0 1 1.452 3.512 2.137 2.137 0 0 0 1.902 1.617.155.155 0 0 1 .142.155Z" fill="#000000" opacity="1" data-original="#000000" class=""></path><path d="M43.842 12.105a9.47 9.47 0 1 0 9.47 9.47 9.482 9.482 0 0 0-9.47-9.47Zm0 16.941a7.47 7.47 0 1 1 7.47-7.47 7.48 7.48 0 0 1-7.47 7.47ZM14.298 32.913a1 1 0 0 0-1.414 0L9.507 36.29a1 1 0 0 0 0 1.414l3.377 3.377a1 1 0 1 0 1.414-1.414l-2.67-2.67 2.67-2.67a1 1 0 0 0 0-1.414ZM24.702 39.666a1 1 0 1 0 1.414 1.414l3.377-3.377a1 1 0 0 0 0-1.414l-3.377-3.377a1 1 0 0 0-1.414 1.414l2.67 2.67ZM19.374 33.377l-1.688 6.754a1 1 0 1 0 1.94.485l1.687-6.754a1 1 0 0 0-1.939-.485Z" fill="#000000" opacity="1" data-original="#000000" class=""></path></g></svg>